<svg xmlns="http://www.w3.org/2000/svg" xmlns:xlink="http://www.w3.org/1999/xlink" width="500" zoomAndPan="magnify" viewBox="0 0 375 374.999991" height="500" preserveAspectRatio="xMidYMid meet" version="1.0"><defs><clipPath id="f072a8cfb4"><path d="M 53.203125 0 L 321 0 L 321 375 L 53.203125 375 Z M 53.203125 0 " clip-rule="nonzero"/></clipPath></defs><g clip-path="url(#f072a8cfb4)"><path fill="#524b46" d="M 136.949219 95.160156 C 122.5 92.230469 114.808594 82.175781 107.953125 70.632812 C 103.476562 63.09375 100.953125 55.429688 101.007812 46.753906 C 101.0625 38.867188 106.726562 31.070312 114.269531 28.820312 C 120.085938 27.089844 127.679688 30.324219 131.625 36.453125 C 133.4375 39.269531 134.871094 42.332031 137.097656 46.4375 C 138.859375 43.363281 140.214844 41.214844 141.367188 38.945312 C 146.578125 28.753906 162.664062 27.066406 169.535156 36.023438 C 172.394531 39.746094 173.398438 43.835938 171.457031 48.25 C 170 51.554688 168.511719 54.902344 166.550781 57.914062 C 161.027344 66.375 155.253906 74.675781 149.589844 83.042969 C 147.96875 85.4375 146.304688 87.808594 144.792969 90.277344 C 141.8125 95.144531 140.8125 100.246094 141.636719 106.089844 C 143.019531 116.058594 143.402344 126.167969 144.605469 136.171875 C 146.785156 154.3125 154.070312 170.992188 160.429688 187.871094 C 166.042969 202.734375 172.382812 217.328125 178.597656 232.53125 C 179.152344 231.476562 179.847656 230.609375 180.09375 229.628906 C 182.460938 220.285156 184.648438 210.898438 187.039062 201.570312 C 188.71875 195.023438 190.328125 188.4375 192.492188 182.050781 C 196.75 169.496094 200.910156 156.875 205.949219 144.628906 C 213.003906 127.492188 220.738281 110.628906 228.386719 93.75 C 230.054688 90.078125 230.984375 86.566406 230.183594 82.585938 C 226.425781 63.980469 230.242188 47.089844 239.785156 30.625 C 244.644531 22.253906 250.617188 15.410156 257.578125 9.164062 C 262.707031 4.5625 268.800781 1.621094 275.753906 0.847656 C 281.113281 0.253906 283.84375 2.339844 284.902344 7.628906 C 286.511719 15.640625 284.074219 23.953125 276.675781 34.105469 C 281.460938 32.1875 285.226562 30.554688 289.074219 29.164062 C 296.246094 26.550781 303.632812 25.800781 311.160156 27.253906 C 318.207031 28.621094 321.808594 34.003906 320.535156 40.964844 C 320.09375 43.476562 319.257812 45.851562 318.015625 48.082031 C 316.777344 50.3125 315.207031 52.277344 313.304688 53.980469 C 311.121094 55.890625 308.824219 57.65625 306.414062 59.269531 C 291.820312 69.386719 276.179688 76.675781 258.234375 78.828125 C 252.652344 79.496094 247.15625 82.144531 242.019531 84.691406 C 239.449219 85.96875 237.207031 88.746094 235.789062 91.371094 C 231.667969 99 228.164062 106.960938 224.183594 114.671875 C 213.800781 134.785156 206.265625 156.085938 199.03125 177.4375 C 194.875 189.730469 190.855469 202.105469 187.527344 214.644531 C 185.007812 224.128906 183.300781 233.875 181.925781 243.605469 C 180.242188 255.53125 179.238281 267.554688 178.050781 279.546875 C 177.851562 281.519531 178.226562 283.582031 178.414062 287.011719 C 186.515625 273.777344 194.1875 262.191406 203.582031 251.867188 C 219.792969 234.027344 236.417969 216.546875 252.179688 198.324219 C 258.882812 190.566406 263.863281 181.304688 269.636719 172.734375 C 270.007812 172.132812 270.460938 171.601562 270.988281 171.132812 C 271.320312 170.863281 271.882812 170.882812 272.726562 170.683594 C 275.09375 173.328125 275.09375 176.800781 274.675781 179.933594 C 271.558594 203.472656 264.789062 225.851562 249.96875 244.769531 C 237.847656 260.25 223.023438 272.957031 205.460938 282.238281 C 199.941406 285.160156 194.289062 288.066406 189.289062 291.765625 C 185.570312 294.527344 182.535156 298.335938 179.726562 302.082031 C 178.792969 303.324219 179.332031 305.835938 179.515625 307.726562 C 180.609375 317.984375 182.035156 328.238281 182.910156 338.492188 C 183.742188 348.3125 184.121094 358.179688 184.515625 368.035156 C 184.582031 369.757812 183.726562 371.515625 182.957031 374.738281 C 181.476562 372.410156 180.386719 371.445312 180.25 370.355469 C 179.59375 365.09375 179.230469 359.796875 178.671875 354.519531 C 177.269531 340.867188 175.359375 327.242188 174.527344 313.554688 C 173.667969 299.390625 173.042969 285.117188 173.8125 270.957031 C 174.445312 259.371094 173.050781 248.894531 163.558594 241.742188 C 158.359375 237.824219 151.609375 235.71875 145.289062 233.585938 C 138.25 231.21875 130.925781 229.644531 123.6875 227.875 C 115.5625 225.882812 107.246094 224.542969 99.289062 222.035156 C 87.175781 218.207031 76.808594 211.539062 68.023438 202.066406 C 61.375 194.945312 56.933594 186.789062 55.148438 177.5625 C 53.570312 169.433594 53.839844 160.945312 53.203125 151.257812 C 56.050781 152.386719 58.074219 152.609375 59.234375 153.734375 C 68.585938 162.757812 79.234375 169.226562 91.554688 173.664062 C 101.25 177.160156 110.242188 182.578125 119.636719 186.945312 C 126.855469 190.296875 134.230469 193.308594 141.515625 196.527344 C 151.222656 200.816406 159.070312 207.375 165.214844 216.011719 C 165.5625 216.5 166.332031 216.6875 168.035156 217.65625 C 166.140625 212.273438 164.625 207.894531 163.054688 203.535156 C 156.4375 185.148438 149.214844 166.953125 143.425781 148.320312 C 140.605469 139.246094 140.269531 129.355469 139.136719 119.796875 C 138.175781 111.671875 137.671875 103.5 136.949219 95.160156 Z M 59.214844 159.5625 C 59.300781 163.203125 59.214844 165.570312 59.4375 167.910156 C 60.933594 183.402344 66.78125 196.5625 79.464844 206.34375 C 91.746094 215.8125 106.304688 219.167969 120.933594 222.121094 C 138.019531 225.574219 155.179688 228.539062 171.417969 239.34375 C 169.882812 234.695312 169.113281 231.207031 167.625 228.066406 C 160.007812 211.957031 146.761719 202.183594 130.796875 195.292969 C 118.222656 189.867188 105.878906 183.894531 93.433594 178.175781 C 90.808594 176.96875 88.144531 175.859375 85.542969 174.589844 C 80.605469 172.167969 75.613281 169.835938 70.816406 167.148438 C 67.140625 165.089844 63.734375 162.546875 59.214844 159.5625 Z M 257.347656 50.855469 C 258.457031 49.039062 259.074219 47.734375 259.953125 46.640625 C 264.015625 41.585938 268.121094 36.570312 272.273438 31.59375 C 277.070312 25.851562 279.566406 19.175781 280.253906 11.824219 C 280.625 7.820312 278.675781 5.394531 274.890625 6.253906 C 270.324219 7.289062 265.070312 8.617188 261.839844 11.640625 C 246.703125 25.839844 235.785156 42.582031 234.890625 64.175781 C 234.671875 69.523438 233.570312 75.117188 236.386719 80.21875 C 244.0625 77.910156 251.273438 74.820312 258.777344 73.671875 C 266.058594 72.589844 273.136719 70.726562 280.007812 68.082031 C 286.875 65.4375 293.375 62.074219 299.503906 57.996094 C 305.523438 54.003906 311.640625 49.980469 314.792969 43.046875 C 317.207031 37.738281 315.164062 33.210938 309.550781 32.003906 C 301.332031 30.246094 293.144531 30.855469 285.839844 35.121094 C 280.09375 38.476562 274.960938 42.882812 269.476562 46.703125 C 266.125 49.058594 263.425781 53.222656 257.347656 50.855469 Z M 139.109375 89.578125 C 148.328125 76.472656 157.828125 63.488281 166.71875 50.097656 C 171.511719 42.878906 166.597656 34.636719 157.886719 34.382812 C 153.550781 34.253906 149.390625 35.808594 147.148438 39.347656 C 143.972656 44.339844 139.957031 49.085938 139.257812 55.347656 C 138.839844 59.132812 136.941406 60.796875 132.734375 59.953125 C 132.710938 57.015625 132.734375 54.167969 132.660156 51.324219 C 132.511719 44.621094 129.308594 39.40625 124.511719 35.058594 C 121.355469 32.207031 117.761719 31.738281 113.863281 33.601562 C 108.226562 36.296875 105.976562 40.777344 105.84375 46.960938 C 105.558594 58.703125 111.875 67.425781 118.28125 76.242188 C 123.136719 82.921875 129.300781 87.535156 139.109375 89.578125 Z M 268.675781 185.0625 C 266.421875 187.171875 265.355469 188.015625 264.46875 189.007812 C 256.878906 197.628906 249.363281 206.304688 241.75 214.902344 C 236.023438 221.371094 230.128906 227.683594 224.425781 234.171875 C 215.261719 244.585938 205.917969 254.867188 197.210938 265.65625 C 192.582031 271.390625 189.09375 278.046875 185.222656 284.375 C 184.621094 285.359375 184.746094 286.792969 184.605469 287.613281 C 191.585938 283.824219 198.277344 279.992188 205.144531 276.5 C 217.570312 270.1875 228.132812 261.371094 237.785156 251.554688 C 252.542969 236.570312 260.738281 217.84375 266.3125 197.871094 C 267.328125 194.265625 267.707031 190.476562 268.675781 185.0625 Z M 268.675781 185.0625 " fill-opacity="1" fill-rule="nonzero"/></g></svg>