<svg xmlns="http://www.w3.org/2000/svg" xmlns:xlink="http://www.w3.org/1999/xlink" width="500" zoomAndPan="magnify" viewBox="0 0 375 374.999991" height="500" preserveAspectRatio="xMidYMid meet" version="1.0"><path fill="#524b46" d="M 320.199219 103.460938 C 316.007812 101.078125 311.023438 103.671875 307.066406 105.804688 C 306.113281 101.328125 307.167969 98.003906 303.324219 95.738281 C 286.3125 85.726562 289.828125 123.5625 297.667969 128.40625 C 304.804688 125.515625 335.742188 112.285156 320.199219 103.460938 Z M 299.769531 123.8125 C 286.75 111.6875 300.683594 84.417969 304.613281 111.179688 C 309.859375 109.890625 313.085938 103.15625 320.753906 108.351562 C 320.429688 118.789062 305.84375 117.710938 299.769531 123.8125 Z M 299.769531 123.8125 " fill-opacity="1" fill-rule="nonzero"/><path fill="#524b46" d="M 201 10.292969 C 196.203125 9.832031 192.582031 13.949219 189.71875 17.421875 C 187.144531 13.636719 186.871094 10.164062 182.453125 9.519531 C 162.921875 6.660156 180.453125 40.375 189.535156 41.902344 C 194.378906 36.234375 220.5 12.175781 201 10.292969 Z M 189.152344 37.5 C 172.519531 31.179688 175.738281 0.0078125 189.476562 23.320312 C 193.847656 20.140625 194.292969 12.695312 203.351562 14.613281 C 209.253906 22.308594 192.484375 29.5625 189.152344 37.5 Z M 189.152344 37.5 " fill-opacity="1" fill-rule="nonzero"/><path fill="#524b46" d="M 71.699219 106.863281 C 67.355469 108.957031 66.65625 114.523438 66.15625 119 C 61.929688 117.238281 59.804688 114.480469 55.75 116.363281 C 37.839844 124.648438 70.957031 143.289062 79.394531 139.601562 C 81.074219 132.074219 87.800781 99.109375 71.699219 106.863281 Z M 76.808594 135.246094 C 59.429688 139.050781 44.929688 112.070312 69.179688 124.074219 C 69.644531 118.390625 69.171875 108.417969 76.03125 109.199219 C 84.4375 115.402344 75.246094 126.773438 76.808594 135.246094 Z M 76.808594 135.246094 " fill-opacity="1" fill-rule="nonzero"/><path fill="#524b46" d="M 286.820312 64.636719 C 302.691406 45.714844 276.683594 34.195312 264.039062 48.605469 C 266.105469 37.15625 255.351562 23.460938 248.855469 27.515625 C 224.136719 42.917969 252.875 102.902344 232.820312 125.386719 C 230.320312 119.914062 227.582031 110.503906 221.847656 111.042969 C 213.777344 120.375 221.460938 135.265625 229.445312 138.886719 C 221.898438 158.304688 216.007812 183.054688 208.347656 199.632812 C 208.386719 192.847656 207.769531 185.121094 201.601562 186.132812 C 195.570312 188.042969 193.320312 200.84375 201.449219 201.390625 C 204.945312 200.320312 203.878906 198.324219 203.46875 196.546875 C 202.257812 195.472656 202.246094 195.402344 201.046875 195.335938 C 200.226562 195.289062 200.480469 193.839844 200.71875 193.050781 C 200.921875 192.347656 200.808594 191.320312 201.601562 191.195312 C 209.925781 192.378906 199.152344 229.101562 194.847656 251.101562 C 195.050781 224.726562 193.492188 203.054688 194.003906 167.570312 C 205.226562 169.296875 216.378906 148.925781 205.820312 146.476562 C 200.203125 145.179688 196.261719 153.855469 192.320312 156.597656 C 192.351562 145.851562 185.539062 129.089844 190.632812 117.789062 C 197.242188 103.113281 213.132812 88.144531 215.941406 73.070312 C 220.808594 47.015625 188.816406 54.988281 187.257812 68.851562 C 183.617188 54.316406 161.074219 50.710938 158.570312 66.316406 C 154.308594 92.882812 194.328125 112.148438 186.414062 139.722656 C 182.003906 136.535156 178.628906 132.316406 172.074219 131.285156 C 168.625 144.914062 178.628906 152.246094 188.949219 154.90625 C 188.015625 163.160156 192.386719 170.578125 189.792969 177.6875 C 187.066406 171.414062 185.585938 159.554688 176.292969 164.1875 C 171.539062 168.980469 173.164062 181.664062 181.351562 181.066406 C 184.289062 180.347656 183.15625 175.554688 184.730469 173.46875 C 188.605469 187.273438 192.679688 198.265625 189.792969 211.4375 C 187.140625 208.742188 183.570312 206.972656 178.824219 206.375 C 175.792969 216.808594 183.289062 223.785156 191.484375 225.777344 C 190.925781 238.996094 192.609375 254.464844 190.640625 266.28125 C 181.476562 243.664062 170.933594 222.429688 161.113281 200.46875 C 170.335938 198.1875 175.210938 174.9375 165.890625 174.257812 C 160.054688 173.832031 156.625 184.421875 155.203125 187.820312 C 147.34375 169.730469 132.335938 138.457031 152.667969 123.695312 C 157.769531 124.976562 159.578125 138.078125 152.667969 136.351562 C 152.34375 133.5 156.40625 135.027344 155.203125 131.289062 C 152.226562 129.816406 148.738281 131.105469 147.605469 133.824219 C 149.621094 137.15625 150.921875 141.191406 156.886719 140.570312 C 161.289062 138.792969 162.246094 131.367188 160.257812 125.386719 C 156.859375 120.125 154.328125 116.800781 147.605469 120.324219 C 142.019531 125.042969 139.609375 134.882812 137.484375 140.570312 C 136.691406 134.59375 128.359375 126.019531 128.195312 116.105469 C 127.90625 98.378906 141.558594 49.492188 124.824219 44.382812 C 112.59375 40.652344 105.453125 54.289062 106.261719 66.324219 C 98.128906 53.757812 78.175781 54.890625 81.796875 74.761719 C 86.257812 99.273438 128.664062 106.429688 128.203125 129.605469 C 123.019531 126.0625 115.894531 124.476562 108.796875 122.851562 C 109.644531 134.488281 120.738281 142.886719 134.953125 143.949219 C 137.792969 152.078125 141.867188 158.96875 143.394531 168.414062 C 141.203125 165.082031 140.082031 166.105469 137.488281 165.886719 C 128.285156 171.277344 138.402344 192.464844 145.078125 179.386719 C 144.359375 177.117188 143.503906 176.457031 140.859375 176.851562 C 138.839844 176.515625 141.328125 180.695312 138.324219 179.386719 C 137.238281 174.582031 135.75 171.382812 140.011719 170.105469 C 152.726562 184.390625 158.464844 205.648438 167.851562 223.265625 C 165.726562 220.800781 163.332031 221.03125 160.257812 220.738281 C 152.878906 223.394531 152.496094 242.550781 165.324219 239.292969 C 166.121094 237.0625 168.820312 233.933594 167.011719 231.703125 C 164.777344 229.667969 165.175781 230.164062 162.792969 230.859375 C 160.375 232.171875 164.546875 234.796875 161.949219 235.921875 C 153.9375 219.359375 169.492188 228.523438 174.605469 237.605469 C 180.5625 248.203125 185.824219 264.757812 189.792969 271.355469 C 181.320312 275.199219 166.21875 260.125 157.730469 250.257812 C 150.917969 242.347656 145.644531 233.84375 140.851562 228.320312 C 147.804688 222.652344 145.941406 198.796875 137.074219 195.949219 C 130.585938 198.164062 132.375 213.378906 132.414062 217.351562 C 122.199219 213.679688 124.378906 183.644531 121.441406 167.570312 C 117.28125 144.730469 90.289062 150.195312 95.289062 174.320312 C 85.429688 163.140625 65.878906 169.21875 69.132812 184.441406 C 71.152344 193.882812 89.78125 202.054688 101.195312 204.6875 C 107.15625 206.066406 114.554688 204.667969 118.914062 207.214844 C 129.222656 213.246094 134.355469 229.410156 141.695312 235.902344 C 133.828125 230.222656 120.742188 232.320312 120.597656 243.492188 C 119.816406 249.121094 124.566406 252.128906 129.878906 251.929688 C 134.769531 249.835938 139.074219 240.695312 132.007812 239.9375 C 126.515625 243.78125 131.847656 245.320312 129.039062 247.710938 C 118.550781 224.585938 156.15625 243.40625 157.722656 255.308594 C 135.035156 252.890625 156.398438 276.21875 169.109375 267.304688 C 169.417969 267.089844 169.816406 267.082031 170.136719 267.273438 C 172.007812 268.378906 174.285156 267.167969 172.914062 270.492188 C 167.601562 269.398438 166.515625 270.328125 162.792969 273.027344 C 161.457031 276.1875 161.296875 276.59375 161.949219 279.773438 C 151.542969 281.523438 149.871094 292.785156 160.257812 295.800781 L 160.257812 301.707031 C 161.652344 304.527344 166.820312 303.574219 168.695312 305.925781 C 171.683594 305.78125 172.65625 299.25 175.449219 301.707031 C 169.53125 311.566406 159.679688 321.898438 157.730469 332.925781 C 169.648438 323.464844 174.230469 302.179688 184.730469 294.117188 C 176.996094 317.753906 169.03125 342.21875 164.476562 366.679688 C 171.863281 358.742188 173.066406 349.53125 175.449219 339.679688 C 178.484375 327.09375 181.417969 313.375 185.574219 304.238281 C 192.660156 315.210938 176.941406 325.382812 178.824219 336.300781 C 179.398438 340.179688 182.558594 333.167969 185.574219 332.925781 C 187.199219 335.472656 188.140625 335.472656 189.484375 337.355469 C 191.382812 336.445312 192.246094 333.136719 194.011719 332.089844 C 194.636719 347.273438 193.050781 361.945312 198.230469 376.800781 C 200.769531 351.921875 195.503906 312.679688 195.703125 288.210938 C 207.089844 305.160156 216.113281 326.160156 226.074219 344.738281 C 229.757812 351.617188 232.523438 357.660156 240.417969 363.300781 C 228.460938 342.632812 215.179688 318.792969 206.667969 297.492188 C 219.097656 310.671875 232.0625 327.769531 248.855469 333.773438 C 249.183594 332.320312 247.605469 331.609375 248.855469 331.238281 C 247.53125 328.34375 244.285156 327.375 242.101562 325.335938 C 243.871094 323.730469 246.550781 323.039062 246.320312 319.425781 C 244.429688 317.09375 241.023438 316.285156 239.566406 313.519531 C 242.089844 312.097656 244.351562 310.425781 245.472656 307.617188 C 232.707031 306.878906 223.117188 298.464844 220.164062 290.738281 C 232.351562 294.703125 233.878906 277.882812 223.539062 276.394531 C 225.113281 274.871094 222.089844 267.550781 222.695312 267.117188 C 243.976562 262.914062 221.125 239.429688 210.882812 251.929688 C 215.335938 245.136719 218.160156 236.710938 222.695312 229.992188 C 232.136719 235.066406 246.898438 229.234375 248.003906 218.175781 C 242.800781 212.253906 231.003906 218.300781 227.757812 219.019531 C 235.25 210.574219 236.421875 193.570312 244.636719 184.421875 C 252.058594 176.148438 292.5625 167.460938 283.445312 151.515625 C 280.023438 145.535156 267.679688 148.652344 262.347656 150.675781 C 264.671875 142.808594 263.050781 134.9375 256.445312 134.648438 C 233.648438 133.632812 249.738281 185.910156 233.464844 196.394531 C 232.265625 193.089844 231.199219 188.007812 226.074219 188.640625 C 219.0625 195.882812 220.875 205.875 226.914062 213.109375 C 217.4375 233.164062 208.308594 253.5625 194.855469 269.636719 C 200.582031 239.925781 208.125 212.035156 217.636719 186.105469 C 226.152344 183.941406 237.011719 177.558594 236.195312 163.324219 C 230.1875 160.964844 225.816406 166.042969 222.695312 169.230469 C 231.445312 145.640625 234.414062 116.261719 258.976562 108.484375 C 263.625 112.328125 258.183594 124.03125 253.917969 118.605469 C 254.265625 116.703125 256.515625 117.808594 258.136719 116.070312 C 257.878906 114.625 258.03125 113.5625 255.609375 113.109375 C 251.890625 113.050781 251.011719 114.300781 250.460938 117.347656 C 252.101562 130.183594 263.796875 123.246094 264.882812 116.070312 C 267.246094 100.472656 247.828125 104.386719 242.101562 113.539062 C 240.382812 91.863281 274.078125 79.828125 286.820312 64.636719 Z M 205.820312 150.703125 C 205.859375 158.335938 201.960938 162.03125 194.847656 162.515625 C 197.472656 157.539062 198.804688 151.273438 205.820312 150.703125 Z M 175.449219 136.351562 C 180.746094 138.097656 185.902344 144.453125 185.574219 149.007812 C 178.9375 148.046875 175.652344 143.742188 175.449219 136.351562 Z M 186.414062 115.261719 C 183.597656 102.347656 155.234375 81.238281 163.632812 62.953125 C 164.179688 61.769531 167.523438 59.042969 168.695312 58.734375 C 182.050781 55.226562 181.222656 72.917969 189.792969 76.453125 C 186.84375 64.902344 213.191406 47.851562 212.574219 69.707031 C 212.117188 85.621094 193.261719 106.757812 186.414062 115.261719 Z M 181.011719 171.132812 C 178.050781 172.34375 178.957031 175.03125 179.667969 176.011719 C 174.554688 173.015625 176.574219 168.84375 178.824219 168.414062 C 180.917969 168.855469 181.832031 170.46875 183.046875 171.789062 C 182.492188 173.421875 183.105469 170.039062 181.011719 171.132812 Z M 187.257812 219.046875 C 183.710938 218.089844 182.519531 214.785156 181.347656 211.449219 C 187.140625 210.433594 186.210938 216.148438 188.941406 218.203125 C 188.921875 219.019531 187.914062 218.855469 187.257812 219.046875 Z M 89.746094 61.5625 C 94.171875 59.378906 103.011719 69.574219 108.789062 74.769531 C 110.277344 67.835938 109.796875 44.59375 121.441406 46.925781 C 136.652344 49.964844 123.59375 91.472656 125.660156 110.207031 C 108.765625 100.539062 73.59375 78.058594 89.746094 61.5625 Z M 113.859375 127.078125 C 120.988281 130.355469 130.730469 131.011719 131.570312 140.578125 C 123.34375 138.398438 115.578125 135.757812 113.859375 127.078125 Z M 166.515625 178.695312 C 167.4375 185.917969 166.332031 192.042969 160.257812 195.414062 C 159.039062 190.054688 158.988281 177.984375 166.515625 178.695312 Z M 74.199219 187.824219 C 64.832031 165.558594 94.960938 170.824219 101.199219 181.921875 C 100.878906 175.804688 93.855469 154.609375 107.949219 154.921875 C 122.09375 155.230469 116.722656 188.378906 118.070312 201.324219 C 105.761719 201.5625 78.519531 198.085938 74.199219 187.824219 Z M 138.34375 222.382812 C 134.621094 217.980469 130.953125 203.925781 138.324219 200.476562 C 140.53125 205.355469 142.464844 216.417969 138.34375 222.382812 Z M 151.824219 261.230469 C 155.636719 256.234375 160.105469 261.132812 164.484375 262.914062 C 162.410156 268.511719 153.496094 263.921875 151.824219 261.230469 Z M 181.351562 276.417969 C 176.351562 278.207031 168.578125 278.964844 165.324219 278.101562 C 166.386719 271.753906 178.523438 271.703125 181.351562 276.417969 Z M 157.730469 288.226562 C 158.441406 283.695312 164.871094 282.933594 167.011719 286.539062 C 164.628906 287.816406 161.183594 288.027344 157.730469 288.226562 Z M 167.851562 301.726562 C 165.753906 301.855469 165.238281 300.394531 163.632812 300.039062 C 165.042969 295.832031 165.351562 294.234375 162.792969 291.601562 C 171.300781 290.832031 176.199219 286.449219 182.195312 283.164062 C 180.792969 289.363281 173.472656 296.941406 167.851562 301.726562 Z M 190.023438 331.449219 C 187.328125 328.085938 179.261719 333.472656 181.953125 329.835938 C 187.515625 323.742188 190.34375 311.636719 188.949219 301.726562 C 188.757812 300.402344 188.898438 287.472656 189.621094 294.0625 C 193.484375 304.464844 196.484375 321.582031 190.023438 331.449219 Z M 259.820312 139.730469 C 262.78125 144.5 260.628906 153.644531 258.347656 157.949219 C 258.8125 160.296875 260.097656 157.410156 263.191406 155.796875 C 266.554688 152.03125 270.589844 148.800781 276.699219 150.695312 C 290.625 161.171875 258.128906 172.671875 245.839844 177.582031 C 246.234375 164.683594 243.820312 133.207031 259.820312 139.730469 Z M 226.914062 193.730469 C 232.160156 195.277344 232.261719 206.070312 226.914062 207.230469 C 224.613281 204.703125 224.363281 196.21875 226.914062 193.730469 Z M 243.785156 219.046875 C 242.515625 226.226562 231.390625 230.109375 226.910156 226.640625 C 230.824219 222.390625 235.023438 218.433594 243.785156 219.046875 Z M 237.882812 309.320312 C 237.367188 312.175781 235.183594 311.507812 233.867188 313.566406 C 233.953125 317.984375 239.335938 318.53125 241.398438 320.964844 C 226.199219 323.65625 217.675781 294.667969 201.601562 288.230469 C 219.683594 285.902344 220.773438 307.867188 237.882812 309.320312 Z M 227.757812 284.003906 C 227.507812 285.722656 225.472656 285.664062 225.230469 287.382812 C 216.496094 286.46875 205.464844 286.742188 200.757812 279.792969 C 207.558594 279.003906 215.132812 278.984375 218.476562 274.730469 C 218.675781 280.722656 225.34375 280.234375 227.757812 284.003906 Z M 201.601562 276.417969 C 205.089844 272.875 210.703125 271.460938 216.785156 270.503906 C 214.304688 276.0625 206.832031 275.605469 201.601562 276.417969 Z M 227.757812 261.230469 C 225.890625 262.730469 224.328125 264.554688 220.164062 263.757812 C 219.386719 260.449219 224.613281 263.144531 225.222656 261.230469 C 224.183594 256.800781 217.40625 257.417969 215.941406 261.230469 C 215.105469 264.59375 218.464844 263.773438 217.628906 267.136719 C 210.347656 264.773438 204.824219 271.097656 198.222656 272.195312 C 203.074219 265.410156 221.648438 240.246094 227.757812 261.230469 Z M 232.820312 167.570312 C 230.648438 173.554688 228.648438 179.710938 221.003906 180.230469 C 222.714844 173.777344 226.460938 169.367188 232.820312 167.570312 Z M 228.601562 132.980469 C 223.683594 130.914062 219.472656 121.878906 223.539062 116.105469 C 227.324219 119.410156 231.699219 128.039062 228.601562 132.980469 Z M 251.382812 30.046875 C 261.652344 29.75 261.980469 48.832031 258.128906 58.734375 C 266.394531 56.496094 271.148438 43.003906 282.542969 46.367188 C 287.511719 47.832031 288.78125 51.800781 287.128906 56.8125 C 282.488281 70.910156 256.390625 83.851562 245.496094 92.269531 C 241.863281 71.695312 235.253906 40.585938 251.382812 30.046875 Z M 251.382812 30.046875 " fill-opacity="1" fill-rule="nonzero"/></svg>