<svg xmlns="http://www.w3.org/2000/svg" xmlns:xlink="http://www.w3.org/1999/xlink" width="500" zoomAndPan="magnify" viewBox="0 0 375 374.999991" height="500" preserveAspectRatio="xMidYMid meet" version="1.0"><defs><clipPath id="584878dca0"><path d="M 90 15 L 288.75 15 L 288.75 373 L 90 373 Z M 90 15 " clip-rule="nonzero"/></clipPath></defs><g clip-path="url(#584878dca0)"><path fill="#fff3e4" d="M 288.539062 86.386719 C 281.835938 85.113281 273.457031 87.855469 266.40625 89.199219 C 268.644531 82.421875 273.589844 75.007812 269.683594 67.933594 C 269.804688 67.554688 269.039062 67 268.882812 66.753906 L 268.898438 66.605469 L 268.832031 66.675781 C 268.503906 66.296875 267.703125 66.183594 266.222656 66.511719 C 259.097656 70.160156 252.9375 74.644531 244.714844 75.035156 C 245.433594 65.4375 235.394531 61.46875 227.054688 65.074219 C 227.675781 58.957031 239.6875 28.675781 224.519531 42.5625 C 217.5625 48.554688 206.828125 50.835938 202.289062 59.410156 C 200.761719 57.011719 198.546875 55.0625 195.675781 53.601562 C 240.71875 45.597656 197.035156 1.066406 178.765625 42.355469 C 186.039062 0.0078125 133.222656 13.746094 157.851562 45.714844 C 127.824219 36.261719 121.910156 82.894531 153.738281 70.078125 C 152.164062 79.039062 157.867188 76.125 158.601562 69.667969 C 158.882812 65.234375 162.90625 63.21875 166.148438 60.3125 C 167.675781 62.292969 170.136719 63.046875 172.902344 62.375 C 174.265625 68.105469 174.167969 73.878906 175.097656 79.753906 C 171.828125 81.554688 169.269531 84.691406 167.675781 88.828125 C 165.886719 80.960938 153.964844 70.921875 147.636719 78.425781 C 140.613281 70.425781 124.679688 69.640625 116.644531 64.902344 C 114.8125 63.515625 108.386719 62.597656 111.589844 66.710938 C 120.707031 74.347656 120.714844 87.246094 124.511719 97.722656 C 117.050781 94.445312 109.347656 98.132812 101.742188 97.9375 C 97.523438 97.492188 86.648438 93.855469 93.558594 101.707031 C 97.902344 105.136719 102.320312 112.351562 107.59375 117.089844 C 101.570312 117.890625 89.339844 122.40625 90.546875 125.488281 C 104.902344 162.1875 137.605469 209.683594 159.808594 243.355469 C 163.203125 248.503906 179.226562 267.246094 180.464844 270.09375 C 180.738281 270.730469 180.664062 272.710938 179.855469 273.132812 C 146.707031 244.816406 95.269531 251.460938 128.210938 304.113281 C 150.207031 339.28125 162.300781 308.464844 181.679688 291.964844 L 169.527344 364.871094 C 171.621094 374.089844 218.203125 374.976562 220.566406 369.734375 C 217.726562 345.09375 216.066406 319.3125 204.765625 296.828125 L 207.808594 296.21875 C 214.175781 299.453125 224.007812 317.132812 228.460938 319.304688 C 244.808594 327.269531 262.789062 295.441406 264.308594 282.242188 C 270.507812 228.507812 205.332031 276.289062 203.550781 272.523438 C 218.054688 257.746094 228.648438 239.457031 238.789062 221.484375 C 252.648438 196.9375 271.109375 161.929688 282.53125 136.425781 C 283.785156 133.628906 286.15625 124.238281 287.898438 117.972656 C 288.707031 115.074219 286.476562 112.226562 283.472656 112.320312 C 281.078125 112.394531 278.0625 112.492188 274.539062 112.597656 C 282.191406 108.488281 285.996094 93.140625 288.539062 86.359375 Z M 173.4375 292.339844 C 173.085938 292.769531 172.722656 293.214844 172.351562 293.675781 C 171.996094 294.113281 171.632812 294.566406 171.269531 295.03125 C 168.742188 298.199219 165.925781 301.808594 163.175781 305.117188 C 162.855469 305.5 162.53125 305.886719 162.210938 306.265625 C 158.066406 311.164062 154.195312 315.175781 151.914062 315.695312 C 151.082031 315.886719 150.230469 315.949219 149.378906 315.894531 C 149.027344 315.875 148.679688 315.828125 148.332031 315.769531 C 147.894531 315.695312 147.449219 315.589844 147.011719 315.457031 C 142.867188 314.21875 138.65625 310.558594 134.957031 305.640625 C 133.917969 304.261719 132.925781 302.796875 131.984375 301.246094 C 130.804688 299.316406 129.707031 297.273438 128.722656 295.164062 C 128.523438 294.742188 128.328125 294.320312 128.144531 293.898438 C 125.125 287.097656 123.265625 279.789062 123.382812 273.65625 C 123.382812 273.628906 123.382812 273.597656 123.382812 273.570312 C 123.429688 271.484375 123.710938 269.535156 124.25 267.792969 C 124.355469 267.46875 124.464844 267.148438 124.585938 266.835938 C 124.851562 266.148438 125.15625 265.496094 125.511719 264.886719 C 125.824219 264.359375 126.164062 263.863281 126.550781 263.40625 C 126.609375 263.332031 126.667969 263.25 126.734375 263.175781 C 128.144531 261.566406 130.035156 260.386719 132.464844 259.792969 C 142.964844 257.234375 165.480469 267.609375 175.898438 275.585938 C 176.199219 275.824219 176.335938 276.148438 176.335938 276.476562 C 176.335938 276.867188 176.113281 277.238281 175.757812 277.4375 C 175.621094 277.511719 175.46875 277.578125 175.289062 277.59375 C 173.214844 277.757812 171.1875 277.90625 169.21875 278.070312 C 160.652344 278.789062 152.871094 279.832031 144.402344 283.898438 C 144.296875 283.949219 144.246094 284.03125 144.222656 284.117188 C 144.210938 284.207031 144.222656 284.296875 144.269531 284.371094 C 144.292969 284.402344 144.3125 284.429688 144.34375 284.453125 C 144.402344 284.496094 144.476562 284.519531 144.566406 284.511719 L 163.472656 282.488281 L 173.941406 281.367188 C 174 281.367188 174.058594 281.367188 174.109375 281.382812 C 174.363281 281.449219 174.480469 281.746094 174.382812 281.976562 C 174.347656 282.066406 174.273438 282.148438 174.15625 282.191406 L 148.480469 293.054688 C 148.347656 293.113281 148.289062 293.222656 148.28125 293.335938 C 148.28125 293.519531 148.4375 293.710938 148.671875 293.660156 L 178.03125 287.136719 C 176.898438 288.183594 175.296875 290.050781 173.429688 292.339844 Z M 208.527344 287.457031 C 209.039062 287.46875 209.617188 287.523438 210.238281 287.597656 C 211.179688 287.714844 212.246094 287.894531 213.390625 288.121094 C 213.769531 288.195312 214.160156 288.285156 214.5625 288.367188 C 215.355469 288.546875 216.183594 288.738281 217.023438 288.945312 C 217.867188 289.152344 218.726562 289.382812 219.59375 289.621094 C 220.589844 289.894531 221.597656 290.175781 222.589844 290.472656 C 223.199219 290.652344 223.800781 290.835938 224.398438 291.015625 C 225.519531 291.355469 226.617188 291.703125 227.660156 292.042969 C 228.328125 292.261719 228.972656 292.476562 229.589844 292.683594 C 229.960938 292.808594 230.316406 292.925781 230.664062 293.054688 C 231.835938 293.460938 232.867188 293.839844 233.726562 294.164062 C 234.636719 294.511719 235.351562 294.816406 235.765625 295.023438 C 233.386719 289.871094 227.519531 288.261719 221.664062 286.839844 C 221.335938 286.757812 221.011719 286.683594 220.683594 286.601562 C 220.03125 286.445312 219.386719 286.292969 218.75 286.128906 C 216.511719 285.566406 214.355469 284.933594 212.5 284.058594 C 211.441406 283.554688 210.476562 282.96875 209.636719 282.265625 L 210.808594 282.363281 L 240.019531 284.699219 C 229.113281 277.171875 219.21875 280.539062 206.992188 278.878906 C 209.890625 276.726562 214.316406 273.761719 219.277344 270.820312 C 220.179688 270.285156 221.101562 269.75 222.035156 269.21875 C 230.886719 264.183594 240.8125 259.636719 246.707031 259.785156 C 248.503906 259.832031 250.097656 260.089844 251.503906 260.511719 C 251.757812 260.585938 251.996094 260.667969 252.230469 260.757812 C 253.90625 261.367188 255.300781 262.226562 256.429688 263.316406 C 256.671875 263.550781 256.902344 263.796875 257.125 264.058594 C 257.679688 264.710938 258.15625 265.429688 258.5625 266.191406 C 258.800781 266.636719 259.023438 267.089844 259.207031 267.5625 C 259.371094 267.980469 259.511719 268.417969 259.644531 268.859375 C 260.230469 270.839844 260.476562 273.050781 260.429688 275.414062 C 260.0625 293.179688 243.1875 319.285156 230.917969 315.6875 C 229.078125 315.148438 224.753906 308.777344 219.9375 302.3125 C 219.335938 301.503906 218.726562 300.695312 218.113281 299.894531 C 217.328125 298.871094 216.539062 297.871094 215.753906 296.910156 C 215.035156 296.027344 214.324219 295.179688 213.621094 294.378906 C 212.972656 293.652344 212.328125 292.957031 211.699219 292.328125 C 209.625 290.242188 207.671875 288.761719 206.003906 288.351562 C 206.058594 287.671875 207.007812 287.410156 208.539062 287.457031 Z M 243.832031 79.300781 C 243.980469 78.855469 244.113281 78.402344 244.222656 77.957031 C 246.640625 78.1875 249.042969 77.789062 251.429688 77.121094 C 251.832031 77.007812 252.222656 76.890625 252.625 76.765625 C 253.417969 76.511719 254.210938 76.246094 254.996094 75.964844 C 255.390625 75.824219 255.789062 75.683594 256.183594 75.535156 C 256.96875 75.246094 257.761719 74.949219 258.539062 74.667969 C 258.933594 74.527344 259.328125 74.382812 259.71875 74.25 C 260.898438 73.84375 262.070312 73.472656 263.242188 73.175781 C 263.257812 73.175781 263.277344 73.160156 263.292969 73.160156 C 263.761719 73.078125 264.457031 72.679688 265.214844 72.101562 C 266.074219 71.441406 267.296875 72.085938 267.207031 73.167969 C 267.058594 74.957031 266.925781 76.4375 266.777344 77.707031 C 266.75 77.957031 266.71875 78.210938 266.679688 78.449219 C 266.554688 79.402344 266.40625 80.242188 266.214844 81.003906 C 266.167969 81.199219 266.117188 81.382812 266.066406 81.570312 C 265.910156 82.117188 265.726562 82.636719 265.511719 83.140625 C 265.4375 83.3125 265.363281 83.472656 265.28125 83.644531 C 263.929688 86.484375 261.394531 89.183594 256.101562 95.582031 C 255.546875 93.957031 254.617188 92.511719 253.394531 91.289062 C 253.105469 91 252.808594 90.734375 252.492188 90.472656 C 251.742188 89.863281 250.917969 89.324219 250.007812 88.863281 C 250.386719 88.738281 250.785156 88.632812 251.1875 88.53125 C 252.136719 88.300781 253.152344 88.117188 254.136719 87.894531 C 254.539062 87.796875 254.9375 87.691406 255.324219 87.582031 C 256.496094 87.234375 257.570312 86.742188 258.398438 85.9375 C 258.421875 85.921875 258.4375 85.90625 258.460938 85.882812 C 258.933594 85.410156 259.320312 84.824219 259.578125 84.089844 C 259.832031 83.609375 259.90625 83.125 259.839844 82.710938 C 259.808594 82.539062 259.757812 82.382812 259.691406 82.242188 C 259.585938 82.027344 259.429688 81.851562 259.238281 81.710938 C 258.851562 81.433594 258.3125 81.339844 257.667969 81.53125 C 257.480469 81.5625 257.304688 81.597656 257.132812 81.648438 C 256.785156 81.746094 256.449219 81.886719 256.132812 82.050781 C 255.96875 82.132812 255.8125 82.222656 255.65625 82.316406 C 254.253906 83.164062 253.054688 84.460938 251.71875 85.34375 C 251.273438 85.640625 250.808594 85.882812 250.320312 86.054688 C 249.769531 86.023438 249.25 86.03125 248.738281 86.054688 C 248.457031 86.070312 248.175781 86.089844 247.902344 86.128906 C 247.433594 86.179688 246.976562 86.246094 246.53125 86.328125 C 245.765625 86.46875 245.023438 86.640625 244.285156 86.816406 C 243.683594 86.964844 243.082031 87.113281 242.46875 87.246094 C 242.171875 87.316406 241.875 87.382812 241.578125 87.441406 C 241.332031 87.492188 241.089844 87.535156 240.835938 87.582031 C 240.085938 87.707031 239.300781 87.804688 238.472656 87.847656 C 240.894531 85.386719 242.792969 82.421875 243.832031 79.308594 Z M 229.410156 90.390625 C 227.617188 92.007812 221.902344 94.980469 222.597656 96.988281 C 225.785156 99.222656 232.175781 92.800781 235.136719 90.949219 C 249.742188 83.207031 261.765625 100.757812 246.53125 108.964844 C 238.910156 115.828125 213.917969 99.472656 225.460938 112.988281 C 225.785156 113.492188 226.058594 113.835938 226.289062 114.078125 C 218.496094 114.308594 210.371094 114.546875 202.164062 114.777344 C 204.113281 113.34375 207.4375 108.496094 208.875 107.414062 C 214.648438 112.242188 225.601562 106.671875 222.636719 99.222656 C 220.699219 92.832031 210.054688 89.183594 205.855469 95.269531 C 205.152344 90.652344 196.550781 89.84375 193.933594 86.460938 C 186.476562 80.574219 186.898438 69.816406 196.019531 67.757812 C 204.441406 66.265625 213.648438 77.492188 214.339844 90.175781 C 214.003906 91.316406 217.695312 93.625 215.316406 83.171875 C 225.703125 56.140625 255.515625 71.441406 229.402344 90.382812 Z M 250.683594 113.699219 C 249.480469 113.738281 247.464844 113.457031 246.234375 113.492188 C 247.441406 113.054688 248.589844 112.492188 249.667969 111.796875 C 249.527344 112.582031 250.414062 113.410156 250.691406 113.707031 Z M 233.609375 113.863281 C 231.515625 113.921875 229.402344 113.988281 227.261719 114.050781 C 227.34375 113.390625 226.59375 111.617188 226.054688 110.734375 C 228.46875 111.914062 231.292969 113.308594 233.609375 113.863281 Z M 200.800781 114.8125 C 191.785156 115.066406 182.679688 115.316406 173.800781 115.554688 C 174.117188 114.28125 173.992188 112.53125 173.679688 110.726562 C 178.226562 114.730469 184.660156 117.058594 189.351562 112.300781 C 192.355469 112.921875 196.640625 112.507812 201.007812 111.179688 C 200.601562 113.167969 200.570312 114.292969 200.792969 114.8125 Z M 191.066406 108.570312 C 191.066406 108.570312 191.042969 108.570312 191.027344 108.570312 C 191.273438 107.085938 191.097656 105.671875 190.613281 104.351562 C 190.429688 103.847656 190.191406 103.359375 189.925781 102.890625 C 189.8125 102.699219 189.703125 102.511719 189.574219 102.328125 C 188.128906 100.164062 185.832031 98.457031 183.332031 97.554688 C 184.289062 97.054688 185.164062 96.523438 185.949219 95.953125 C 186.738281 95.382812 187.433594 94.773438 188.042969 94.105469 C 189.257812 92.777344 190.101562 91.242188 190.53125 89.398438 C 190.710938 89.570312 190.902344 89.746094 191.117188 89.9375 C 191.332031 90.132812 191.570312 90.332031 191.824219 90.539062 C 192.074219 90.746094 192.339844 90.960938 192.625 91.183594 C 192.84375 91.355469 193.074219 91.535156 193.3125 91.710938 C 193.4375 91.808594 193.570312 91.902344 193.707031 91.992188 C 194.582031 92.625 195.535156 93.253906 196.539062 93.832031 C 196.714844 93.933594 196.902344 94.039062 197.078125 94.136719 C 197.621094 94.433594 198.175781 94.714844 198.730469 94.957031 C 199.050781 95.097656 199.363281 95.234375 199.679688 95.351562 C 199.800781 95.394531 199.910156 95.441406 200.03125 95.476562 C 200.667969 95.707031 201.296875 95.886719 201.90625 95.996094 C 202.113281 96.035156 202.3125 96.070312 202.511719 96.09375 C 202.683594 96.113281 202.855469 96.128906 203.015625 96.136719 C 203.492188 96.160156 203.953125 96.128906 204.382812 96.039062 C 204.613281 95.996094 204.832031 95.929688 205.050781 95.847656 C 205.277344 95.765625 205.492188 95.664062 205.703125 95.535156 C 205.574219 96.0625 205.804688 96.324219 206.300781 96.449219 C 206.382812 96.472656 206.472656 96.484375 206.570312 96.5 C 206.761719 96.53125 206.984375 96.546875 207.222656 96.546875 C 208.066406 96.566406 209.1875 96.476562 210.425781 96.484375 C 210.78125 96.484375 211.136719 96.5 211.507812 96.515625 C 212.054688 96.546875 212.617188 96.605469 213.175781 96.707031 C 213.398438 96.753906 213.625 96.796875 213.847656 96.855469 C 214.183594 96.9375 214.507812 97.035156 214.835938 97.160156 C 215.5625 97.425781 216.257812 97.804688 216.894531 98.316406 C 217.535156 98.828125 218.113281 99.480469 218.609375 100.3125 C 219.328125 101.214844 219.667969 102.121094 219.722656 102.949219 C 219.722656 102.972656 219.730469 103.003906 219.730469 103.023438 C 219.734375 103.238281 219.730469 103.449219 219.699219 103.648438 C 219.558594 104.648438 218.972656 105.492188 218.121094 106.019531 C 217.105469 106.648438 215.710938 106.8125 214.265625 106.234375 C 213.574219 106.066406 212.9375 105.722656 212.335938 105.277344 C 211.9375 104.980469 211.550781 104.640625 211.171875 104.261719 C 210.800781 103.890625 210.4375 103.484375 210.089844 103.070312 C 209.214844 102.023438 208.40625 100.90625 207.605469 99.96875 C 206.96875 99.222656 206.339844 98.589844 205.703125 98.226562 C 205.195312 98.53125 204.953125 98.976562 204.871094 99.511719 C 204.847656 99.644531 204.839844 99.785156 204.839844 99.925781 C 204.839844 100.320312 204.914062 100.742188 205.035156 101.171875 C 205.054688 101.261719 205.085938 101.347656 205.117188 101.445312 C 205.175781 101.625 205.234375 101.808594 205.300781 101.988281 C 205.6875 103.03125 206.234375 104.0625 206.597656 104.796875 C 201.652344 106.796875 196.558594 108.882812 191.082031 108.546875 Z M 196.046875 57.910156 C 198.375 59.015625 200.214844 60.511719 201.132812 62.78125 C 202.171875 64.796875 202.980469 65.605469 203.492188 65.636719 C 203.492188 65.636719 203.492188 65.636719 203.5 65.636719 C 203.683594 65.644531 203.824219 65.554688 203.9375 65.382812 C 203.996094 65.289062 204.039062 65.175781 204.070312 65.035156 C 204.070312 65.011719 204.085938 64.984375 204.085938 64.960938 C 204.242188 64.175781 204.019531 62.804688 203.34375 61.367188 C 207.5625 58.546875 211.453125 55.34375 215.390625 52.210938 C 219.328125 49.082031 223.292969 46.019531 227.675781 43.484375 C 226.773438 46.152344 226.066406 48.867188 225.546875 51.585938 C 225.246094 53.1875 225 54.78125 224.828125 56.375 C 224.742188 57.234375 224.667969 58.097656 224.621094 58.949219 C 224.527344 60.652344 224.503906 62.34375 224.570312 64.011719 C 224.585938 64.183594 224.597656 64.359375 224.605469 64.546875 C 224.628906 64.910156 224.652344 65.289062 224.6875 65.660156 C 224.710938 65.84375 224.734375 66.023438 224.761719 66.199219 C 223.191406 67.089844 221.34375 68.417969 219.535156 70.351562 C 219.082031 70.832031 218.632812 71.359375 218.1875 71.921875 C 216.851562 73.613281 215.570312 75.683594 214.464844 78.203125 C 214.421875 78.046875 214.359375 77.898438 214.308594 77.742188 C 213.589844 75.429688 212.535156 73.308594 211.1875 71.558594 C 211.367188 71.101562 211.535156 70.671875 211.707031 70.253906 C 211.75 70.152344 211.796875 70.046875 211.832031 69.945312 C 213.117188 66.867188 214.367188 64.84375 217.214844 62.226562 C 217.949219 60.949219 218.28125 59.964844 218.320312 59.246094 C 218.328125 59.066406 218.320312 58.910156 218.289062 58.761719 C 218.277344 58.6875 218.261719 58.621094 218.246094 58.5625 C 218.238281 58.527344 218.222656 58.488281 218.214844 58.460938 C 218.082031 58.109375 217.824219 57.886719 217.488281 57.785156 C 217.355469 57.738281 217.207031 57.71875 217.042969 57.71875 C 216.726562 57.710938 216.371094 57.777344 215.992188 57.910156 C 215.710938 58.015625 215.414062 58.148438 215.117188 58.324219 C 214.332031 58.792969 213.53125 59.527344 212.894531 60.476562 C 211.945312 62.773438 211.105469 64.835938 209.941406 66.898438 C 209.554688 67.585938 209.132812 68.269531 208.652344 68.964844 C 206.140625 66.628906 202.800781 65.53125 199.445312 65.503906 C 198.859375 65.503906 198.265625 65.523438 197.679688 65.589844 C 197.621094 65.589844 197.5625 65.605469 197.5 65.613281 C 196.929688 65.679688 196.359375 65.769531 195.804688 65.894531 C 195.507812 65.960938 195.210938 66.035156 194.914062 66.117188 C 194.542969 66.222656 194.171875 66.347656 193.808594 66.480469 C 192.75 66.867188 191.734375 67.363281 190.800781 67.972656 C 190.546875 68.132812 190.300781 68.304688 190.066406 68.484375 C 189.152344 69.164062 188.335938 69.957031 187.648438 70.855469 C 187.160156 71.492188 186.730469 72.175781 186.371094 72.910156 C 186.261719 73.148438 186.152344 73.390625 186.054688 73.636719 C 185.90625 74.007812 185.773438 74.390625 185.660156 74.792969 C 185.617188 74.949219 185.578125 75.097656 185.542969 75.253906 C 185.484375 75.496094 185.429688 75.742188 185.386719 75.992188 C 182.289062 71.988281 179.417969 67.246094 176.765625 63.027344 C 176.386719 62.425781 176.007812 61.832031 175.636719 61.253906 C 176.148438 60.949219 176.625 60.601562 177.0625 60.222656 C 177.246094 60.066406 177.425781 59.90625 177.59375 59.734375 C 177.816406 59.511719 178.023438 59.28125 178.226562 59.039062 C 178.410156 58.816406 178.597656 58.585938 178.757812 58.339844 C 178.871094 58.175781 178.980469 58.007812 179.085938 57.835938 C 179.699219 56.8125 180.117188 55.6875 180.277344 54.507812 C 180.332031 54.113281 180.359375 53.714844 180.359375 53.3125 C 180.597656 53.402344 180.835938 53.484375 181.078125 53.566406 C 183.503906 54.382812 186.179688 54.960938 188.773438 55.589844 C 189.292969 55.714844 189.8125 55.84375 190.324219 55.976562 C 191.089844 56.175781 191.84375 56.382812 192.578125 56.605469 C 193.792969 56.976562 194.957031 57.398438 196.019531 57.902344 Z M 185.277344 78.90625 C 184.164062 78.460938 182.660156 78.253906 181.144531 78.234375 C 179.625 78.210938 178.097656 78.378906 176.921875 78.683594 C 177.238281 77.34375 177.632812 71.984375 177.535156 70.425781 C 177.972656 70.78125 178.597656 71.492188 179.308594 72.332031 C 179.417969 72.457031 179.53125 72.589844 179.648438 72.722656 C 179.921875 73.042969 180.203125 73.375 180.492188 73.703125 C 180.679688 73.910156 180.863281 74.125 181.050781 74.324219 C 181.234375 74.527344 181.414062 74.726562 181.597656 74.910156 C 181.605469 74.917969 181.613281 74.925781 181.621094 74.933594 C 182.042969 75.378906 182.464844 75.785156 182.882812 76.125 C 182.960938 76.195312 183.042969 76.261719 183.117188 76.320312 C 183.347656 76.496094 183.570312 76.652344 183.785156 76.78125 C 183.867188 76.832031 183.949219 76.867188 184.03125 76.914062 C 184.347656 77.070312 184.652344 77.144531 184.917969 77.105469 C 185.054688 77.089844 185.179688 77.046875 185.289062 76.972656 C 185.261719 77.289062 185.246094 77.609375 185.246094 77.929688 C 185.246094 78.246094 185.253906 78.574219 185.285156 78.890625 Z M 194.507812 51.625 C 189.886719 52.195312 184.273438 49.035156 180.191406 51.867188 C 179.820312 50.394531 178.878906 49.007812 177.527344 47.96875 C 200.328125 6.835938 231.613281 46.902344 194.507812 51.625 Z M 174.734375 59.171875 C 174.621094 59.230469 174.511719 59.28125 174.390625 59.328125 C 173.925781 59.511719 173.421875 59.601562 172.894531 59.59375 C 172.761719 59.59375 172.628906 59.585938 172.492188 59.570312 C 172.226562 59.542969 171.960938 59.496094 171.691406 59.421875 C 171.292969 59.3125 170.898438 59.15625 170.523438 58.949219 C 170.320312 58.835938 170.136719 58.710938 169.949219 58.578125 C 169.804688 58.464844 169.65625 58.347656 169.511719 58.222656 C 169.5 58.207031 169.484375 58.199219 169.46875 58.183594 C 169.039062 57.777344 168.660156 57.289062 168.371094 56.722656 C 168.296875 56.582031 168.230469 56.433594 168.171875 56.28125 C 168.054688 55.976562 167.949219 55.648438 167.882812 55.300781 C 167.839844 55.160156 167.769531 54.996094 167.691406 54.804688 C 167.332031 54.011719 166.667969 52.890625 165.910156 52.527344 C 165.421875 52.289062 164.894531 52.363281 164.398438 53.078125 C 164.210938 53.386719 164.117188 53.742188 164.09375 54.136719 C 164.070312 54.53125 164.117188 54.960938 164.207031 55.398438 C 164.375 56.28125 164.710938 57.214844 164.992188 58.058594 C 164.835938 58.074219 164.6875 58.097656 164.539062 58.117188 C 164.300781 58.15625 164.078125 58.207031 163.863281 58.273438 C 163.589844 58.355469 163.324219 58.453125 163.078125 58.5625 C 162.234375 58.957031 161.542969 59.542969 160.921875 60.222656 C 160.503906 60.683594 160.128906 61.179688 159.757812 61.699219 C 159.570312 61.957031 159.386719 62.21875 159.207031 62.484375 C 158.609375 63.046875 158 63.589844 157.371094 64.101562 C 156.976562 64.421875 156.582031 64.738281 156.183594 65.035156 C 155.488281 65.554688 154.78125 66.027344 154.054688 66.460938 C 153.335938 66.890625 152.601562 67.273438 151.851562 67.601562 C 148.503906 69.082031 144.949219 69.445312 141.355469 67.917969 C 131.785156 61.882812 138.917969 51.015625 147.515625 49.015625 C 147.820312 48.941406 148.132812 48.878906 148.441406 48.835938 C 149.378906 48.695312 150.320312 48.65625 151.246094 48.738281 C 152.328125 48.582031 153.46875 48.671875 154.648438 48.878906 C 154.945312 48.933594 155.242188 48.992188 155.539062 49.058594 C 155.984375 49.15625 156.441406 49.273438 156.894531 49.390625 C 159.171875 49.984375 161.519531 50.726562 163.789062 50.792969 C 164.390625 50.808594 164.992188 50.785156 165.578125 50.691406 C 163.417969 45.300781 156.050781 43.074219 153.914062 36.210938 C 153.738281 35.640625 153.597656 35.03125 153.5 34.394531 C 153.402344 33.757812 153.34375 33.074219 153.335938 32.355469 C 153.320312 30.917969 153.5 29.316406 153.921875 27.507812 C 154.90625 23.226562 157.910156 20.558594 161.359375 19.582031 C 161.890625 19.433594 162.425781 19.320312 162.972656 19.253906 C 163.25 19.21875 163.53125 19.195312 163.804688 19.179688 C 168.195312 18.957031 172.695312 21.34375 174.390625 26.527344 C 176.289062 30.671875 176.28125 35.285156 176.402344 39.804688 C 176.421875 40.710938 176.453125 41.605469 176.503906 42.503906 C 176.609375 44.292969 176.792969 46.039062 177.195312 47.722656 C 173.992188 45.03125 166.75 46.070312 165.976562 50.183594 C 166.398438 50.339844 166.875 50.4375 167.371094 50.496094 C 167.742188 50.542969 168.132812 50.570312 168.527344 50.585938 C 168.660156 50.585938 168.792969 50.59375 168.929688 50.601562 C 169.328125 50.617188 169.734375 50.617188 170.144531 50.628906 C 170.285156 50.628906 170.425781 50.628906 170.566406 50.644531 C 171.242188 50.667969 171.910156 50.710938 172.539062 50.816406 C 172.664062 50.835938 172.789062 50.859375 172.917969 50.890625 C 173.078125 50.925781 173.242188 50.972656 173.398438 51.015625 C 173.65625 51.097656 173.910156 51.195312 174.148438 51.3125 C 174.265625 51.371094 174.382812 51.4375 174.496094 51.503906 C 174.5625 51.550781 174.628906 51.585938 174.6875 51.632812 C 175.554688 52.246094 176.195312 53.246094 176.429688 54.878906 C 176.726562 57.117188 175.941406 58.519531 174.734375 59.171875 Z M 155.566406 79.558594 C 161.863281 81.28125 164.6875 89.050781 167.726562 93.980469 C 169.210938 87.960938 179.566406 77.648438 185.394531 85.128906 C 188.515625 92.207031 178.179688 94.0625 175.265625 97.976562 C 176.933594 101.683594 183.488281 98.265625 186.640625 101.949219 C 192.742188 108.585938 186.164062 108.238281 186.757812 111.023438 C 179.539062 114.695312 174.890625 102.328125 168.476562 103.78125 C 167.445312 105.234375 169.441406 107.859375 170.253906 109.527344 C 171.203125 110.667969 171.5 113.699219 172.285156 115.589844 C 164.636719 115.792969 157.175781 115.984375 150.105469 116.164062 C 152.378906 115.398438 154.359375 114.285156 155.53125 113.078125 C 155.488281 113.695312 155.605469 113.96875 155.902344 114.332031 C 157.4375 113.457031 157.859375 111.535156 158.964844 110.148438 C 160.039062 109.15625 161.097656 107.546875 161.210938 106.679688 C 163.929688 107.390625 168.714844 104.828125 168.683594 102.4375 C 168.113281 101.140625 165.800781 102.230469 164.65625 102.238281 C 160.277344 103.632812 156.421875 97.011719 161.773438 95.773438 C 165.5625 94.484375 167.875 104.261719 170.023438 101.558594 C 172.753906 85.128906 145.085938 96.558594 158.933594 105.984375 C 152.722656 111.542969 134.082031 118.476562 140.390625 103.304688 C 143.296875 98.175781 151.46875 98.738281 155.085938 95.878906 C 155.414062 94.964844 154.691406 93.921875 153.855469 92.90625 C 150.535156 90.242188 146.96875 76.417969 155.566406 79.550781 Z M 124.140625 85.164062 C 123.703125 83.992188 123.25 82.800781 122.78125 81.597656 C 121.699219 78.796875 120.550781 75.957031 119.34375 73.363281 C 119.285156 73.234375 119.253906 73.117188 119.238281 72.992188 C 119.171875 72.457031 119.5 71.984375 119.964844 71.78125 C 120.238281 71.664062 120.566406 71.640625 120.894531 71.78125 C 124.007812 73.085938 127.402344 73.925781 130.820312 74.726562 C 131.390625 74.859375 131.960938 74.992188 132.53125 75.125 C 133.675781 75.394531 134.816406 75.660156 135.941406 75.949219 C 136.507812 76.097656 137.070312 76.246094 137.625 76.402344 C 140.125 77.105469 142.542969 77.957031 144.78125 79.113281 C 145.535156 79.507812 146.285156 79.921875 146.996094 80.398438 C 146.640625 83.207031 147.332031 86.128906 148.628906 88.769531 C 149.925781 91.398438 151.832031 93.742188 153.890625 95.382812 C 153.128906 95.351562 152.386719 95.34375 151.667969 95.367188 C 149.503906 95.425781 147.53125 95.707031 145.75 96.175781 C 145.566406 95.019531 144.988281 93.714844 144.039062 92.734375 C 143.402344 91.875 142.542969 91.199219 141.667969 90.554688 C 140.585938 89.746094 139.480469 88.976562 138.722656 87.921875 C 137.53125 86.113281 135.378906 82.6875 132.875 83.683594 C 132.746094 83.84375 132.652344 84.015625 132.578125 84.171875 C 132.4375 84.484375 132.375 84.785156 132.390625 85.082031 C 132.390625 85.089844 132.390625 85.105469 132.390625 85.113281 C 132.488281 86.640625 134.460938 87.953125 135.964844 89.019531 C 136.113281 89.125 136.261719 89.234375 136.402344 89.332031 C 136.683594 89.539062 136.929688 89.730469 137.136719 89.917969 C 137.773438 90.578125 138.269531 91.378906 138.714844 92.222656 C 139.695312 94.089844 140.464844 96.183594 142.125 97.492188 C 142.125 97.5 142.125 97.5 142.125 97.507812 C 139.546875 98.761719 137.597656 100.480469 136.328125 102.460938 C 136.128906 102.765625 135.941406 103.078125 135.78125 103.394531 C 135.660156 103.632812 135.542969 103.871094 135.4375 104.113281 C 134.921875 105.324219 134.636719 106.605469 134.601562 107.902344 C 133.800781 106.933594 133.097656 105.902344 132.429688 104.847656 C 132.109375 104.335938 131.796875 103.816406 131.503906 103.292969 C 131.175781 102.707031 130.855469 102.121094 130.558594 101.519531 C 129.203125 98.800781 128.121094 95.945312 127.121094 93.082031 C 126.957031 92.625 126.792969 92.15625 126.636719 91.695312 C 126.296875 90.84375 125.941406 89.9375 125.578125 88.988281 C 125.386719 88.492188 125.191406 87.988281 125 87.46875 C 124.71875 86.722656 124.429688 85.949219 124.132812 85.171875 Z M 104.832031 107.175781 C 104.574219 106.828125 104.308594 106.480469 104.046875 106.140625 C 103.90625 105.953125 103.847656 105.753906 103.847656 105.558594 C 103.847656 105.464844 103.863281 105.367188 103.898438 105.277344 C 103.996094 104.996094 104.234375 104.765625 104.53125 104.679688 C 104.699219 104.625 104.894531 104.617188 105.09375 104.6875 C 112.820312 107.316406 118.351562 108.613281 121.550781 108.964844 C 121.886719 109 122.203125 109.023438 122.488281 109.039062 C 122.777344 109.050781 123.035156 109.058594 123.265625 109.050781 C 123.503906 109.050781 123.703125 109.03125 123.886719 109.007812 C 123.976562 108.992188 124.066406 108.976562 124.140625 108.964844 C 124.296875 108.933594 124.421875 108.890625 124.527344 108.835938 C 124.578125 108.816406 124.621094 108.785156 124.660156 108.757812 C 124.695312 108.726562 124.726562 108.695312 124.753906 108.660156 C 124.777344 108.621094 124.800781 108.59375 124.808594 108.546875 C 124.820312 108.511719 124.820312 108.464844 124.820312 108.429688 C 124.761719 107.085938 117.859375 103.730469 103.523438 100.109375 C 105.195312 100.171875 106.96875 100.199219 108.808594 100.230469 C 111.601562 100.273438 114.546875 100.320312 117.503906 100.46875 C 118.484375 100.519531 119.46875 100.578125 120.449219 100.660156 C 122.40625 100.816406 124.355469 101.03125 126.246094 101.347656 C 127.148438 102.824219 128.3125 104.632812 129.738281 106.234375 C 130.003906 106.539062 130.285156 106.828125 130.566406 107.109375 C 131.003906 107.539062 131.457031 107.949219 131.933594 108.3125 C 132.800781 108.984375 133.742188 109.527344 134.75 109.867188 C 135.054688 112.070312 135.914062 113.6875 137.128906 114.835938 C 137.863281 115.523438 138.714844 116.042969 139.65625 116.414062 C 131.433594 116.605469 123.96875 116.761719 117.644531 116.867188 C 114.777344 116.917969 112.136719 116.957031 109.773438 116.984375 C 109.347656 113.625 107.085938 110.1875 104.832031 107.175781 Z M 185.765625 367.117188 C 185.558594 367.503906 185.230469 367.785156 184.816406 367.980469 C 184.503906 368.128906 184.140625 368.222656 183.75 368.28125 C 183.613281 368.304688 183.480469 368.320312 183.339844 368.328125 C 180.128906 368.558594 175.089844 366.464844 174.390625 364.910156 C 174.371094 364.859375 174.347656 364.796875 174.332031 364.714844 C 174.304688 364.574219 174.28125 364.390625 174.265625 364.160156 C 174.265625 364.117188 174.265625 364.078125 174.257812 364.042969 C 174.125 361.210938 175.089844 352.625 176.535156 342.527344 C 176.601562 342.042969 176.675781 341.554688 176.742188 341.066406 C 176.882812 340.085938 177.03125 339.09375 177.179688 338.101562 C 177.328125 337.105469 177.484375 336.089844 177.640625 335.082031 C 177.796875 334.066406 177.957031 333.050781 178.121094 332.035156 C 179.507812 323.382812 181.078125 314.671875 182.503906 308.175781 C 182.753906 307.027344 183 305.953125 183.246094 304.960938 C 183.324219 304.625 183.40625 304.308594 183.480469 303.988281 C 184.429688 300.230469 185.277344 297.835938 185.890625 297.621094 C 187.46875 297.0625 188.351562 297.960938 188.738281 299.769531 C 188.796875 300.050781 188.847656 300.347656 188.886719 300.667969 C 188.960938 301.304688 188.996094 302.03125 188.988281 302.808594 C 188.988281 303.410156 188.960938 304.046875 188.921875 304.714844 C 188.902344 305.117188 188.863281 305.53125 188.828125 305.953125 C 188.714844 307.183594 188.554688 308.496094 188.351562 309.847656 C 188.300781 310.195312 188.25 310.542969 188.191406 310.898438 C 187.960938 312.351562 187.691406 313.835938 187.402344 315.308594 C 187.34375 315.621094 187.277344 315.941406 187.21875 316.25 C 187.070312 317 186.914062 317.75 186.765625 318.484375 C 186.714844 318.71875 186.664062 318.964844 186.617188 319.203125 C 186.292969 320.75 185.957031 322.234375 185.652344 323.605469 C 185.617188 323.769531 185.578125 323.933594 185.542969 324.089844 C 185.34375 324.964844 185.15625 325.777344 184.988281 326.527344 C 184.941406 326.726562 184.898438 326.925781 184.851562 327.121094 C 184.816406 327.277344 184.785156 327.433594 184.75 327.582031 C 184.394531 329.179688 184.148438 330.351562 184.105469 330.878906 C 183.761719 334.914062 183.710938 339.464844 183.859375 344.144531 C 184.113281 351.941406 184.925781 360.089844 185.882812 366.808594 C 185.847656 366.917969 185.800781 367.015625 185.75 367.113281 Z M 184.328125 281.597656 C 184.347656 281.003906 184.410156 280.414062 184.511719 279.828125 C 184.578125 279.433594 184.660156 279.046875 184.757812 278.667969 C 185.5 275.835938 187.160156 273.429688 189.648438 272.992188 C 192.660156 272.457031 194.914062 272.628906 196.558594 273.265625 C 197.640625 273.679688 198.464844 274.304688 199.042969 275.066406 C 199.175781 275.246094 199.296875 275.421875 199.398438 275.617188 C 200.140625 276.921875 200.320312 278.542969 200.066406 280.242188 C 200.03125 280.515625 199.976562 280.78125 199.917969 281.058594 C 199.257812 284.03125 197.367188 287.097656 194.996094 288.945312 C 192.710938 288.921875 190.09375 289.117188 188.21875 288.8125 C 187.335938 288.671875 186.609375 288.417969 186.15625 287.988281 C 186.082031 287.90625 186.015625 287.828125 185.941406 287.746094 C 185.941406 287.746094 185.9375 287.738281 185.9375 287.730469 C 185.511719 287.203125 185.171875 286.566406 184.921875 285.855469 C 184.800781 285.527344 184.699219 285.1875 184.617188 284.832031 C 184.460938 284.1875 184.363281 283.496094 184.335938 282.792969 C 184.335938 282.769531 184.335938 282.753906 184.335938 282.734375 C 184.320312 282.347656 184.3125 281.960938 184.335938 281.578125 Z M 188.367188 363.269531 C 188.367188 363.613281 188.332031 363.761719 188.285156 363.761719 C 188.285156 363.761719 188.277344 363.761719 188.269531 363.753906 C 188.257812 363.746094 188.234375 363.722656 188.21875 363.695312 C 188.191406 363.640625 188.152344 363.554688 188.117188 363.441406 C 188.085938 363.351562 188.054688 363.25 188.019531 363.128906 C 187.945312 362.878906 187.871094 362.574219 187.796875 362.246094 C 187.789062 362.203125 187.773438 362.160156 187.765625 362.113281 C 187.671875 361.675781 187.574219 361.21875 187.484375 360.800781 C 187.476562 360.757812 187.46875 360.714844 187.457031 360.667969 C 187.425781 360.535156 187.402344 360.402344 187.382812 360.285156 C 187.300781 359.859375 187.246094 359.550781 187.234375 359.460938 C 187.1875 359.066406 187.144531 358.660156 187.101562 358.246094 C 186.601562 353.285156 186.410156 346.847656 186.738281 339.863281 C 186.738281 339.804688 186.738281 339.753906 186.742188 339.695312 C 187.285156 328.617188 189.144531 316.167969 193.222656 305.976562 C 191.96875 313.019531 187.335938 340.398438 187.90625 356.265625 C 187.945312 357.371094 188.011719 358.414062 188.101562 359.402344 C 188.136719 359.765625 188.167969 360.097656 188.191406 360.410156 C 188.226562 360.816406 188.257812 361.1875 188.277344 361.515625 C 188.308594 361.953125 188.332031 362.320312 188.34375 362.617188 C 188.359375 362.886719 188.359375 363.101562 188.359375 363.269531 Z M 208.101562 315.910156 C 209.585938 322.746094 211.808594 331.308594 213.84375 339.5 C 213.929688 339.859375 214.019531 340.214844 214.101562 340.570312 C 214.449219 341.984375 214.789062 343.394531 215.117188 344.765625 C 215.199219 345.105469 215.28125 345.457031 215.363281 345.796875 C 215.523438 346.476562 215.679688 347.152344 215.835938 347.820312 C 216.066406 348.820312 216.289062 349.800781 216.496094 350.761719 C 216.636719 351.402344 216.769531 352.03125 216.902344 352.648438 C 216.96875 352.957031 217.03125 353.261719 217.097656 353.566406 C 217.46875 355.382812 217.785156 357.082031 218.03125 358.636719 C 218.074219 358.898438 218.113281 359.148438 218.148438 359.402344 C 218.371094 360.914062 218.527344 362.261719 218.578125 363.417969 C 218.601562 363.789062 218.609375 364.136719 218.609375 364.472656 C 218.609375 364.472656 218.609375 364.480469 218.609375 364.488281 C 218.609375 366.527344 218.214844 367.742188 217.304688 367.84375 C 216.496094 367.933594 215.234375 367.972656 213.699219 367.964844 C 208.652344 367.964844 200.617188 367.554688 195.746094 367.289062 C 195.335938 367.265625 194.945312 367.246094 194.582031 367.222656 C 194.402344 367.214844 194.238281 367.179688 194.070312 367.140625 C 192.660156 366.816406 191.636719 365.539062 191.695312 364.042969 C 191.777344 362.113281 191.867188 359.246094 191.984375 355.8125 C 192.246094 348.4375 192.636719 338.40625 193.328125 329.242188 C 193.484375 327.121094 193.660156 325.042969 193.855469 323.066406 C 194.039062 321.167969 194.238281 319.351562 194.460938 317.652344 C 194.484375 317.480469 194.507812 317.320312 194.527344 317.15625 C 194.980469 313.761719 195.515625 310.867188 196.128906 308.824219 C 196.234375 308.472656 196.34375 308.148438 196.457031 307.84375 C 199.035156 300.90625 201.269531 298.367188 203.542969 301.75 C 205.003906 303.914062 206.488281 308.496094 208.089844 315.933594 Z M 284.363281 115.191406 C 285.386719 116.042969 285.054688 119.195312 284.972656 120.664062 C 284.527344 128.65625 220.789062 245.988281 212.0625 256.761719 C 207.628906 262.234375 202.652344 266.679688 197.285156 268.542969 C 197.671875 244.351562 194.261719 220.308594 190.621094 196.691406 C 190.382812 195.167969 188.707031 195.457031 188.761719 197.011719 C 189.582031 221.160156 191.398438 245.558594 195.167969 269.136719 C 189.769531 270.277344 184.007812 268.683594 178.039062 262.839844 C 165.703125 250.761719 117.222656 170.894531 107.5625 152.261719 C 103.195312 143.847656 86.292969 125.496094 98.398438 122.464844 C 124.84375 115.828125 157.304688 123.84375 181.300781 120.484375 C 191.097656 119.113281 206.761719 117.839844 222.589844 116.695312 C 243.304688 115.199219 264.210938 116.949219 284.363281 115.199219 Z M 271.070312 112.738281 C 265.734375 112.898438 259.476562 113.09375 252.535156 113.300781 C 254.78125 112.410156 257.613281 110.34375 258.371094 109.550781 C 262.515625 106.804688 269.734375 105.515625 270.246094 99.546875 C 263.539062 97.539062 259.46875 108.453125 252.625 109.328125 C 255.722656 106.058594 257.234375 101.710938 256.605469 97.597656 C 259.007812 97.761719 264.574219 91.519531 266.546875 91.96875 C 271.765625 92.253906 277.070312 91.082031 281.582031 89.539062 C 282.667969 89.167969 283.578125 90.398438 282.933594 91.347656 C 278.367188 98.101562 275.761719 106.375 271.070312 112.746094 Z M 271.070312 112.738281 " fill-opacity="1" fill-rule="nonzero"/></g></svg>