<svg xmlns="http://www.w3.org/2000/svg" xmlns:xlink="http://www.w3.org/1999/xlink" width="500" zoomAndPan="magnify" viewBox="0 0 375 374.999991" height="500" preserveAspectRatio="xMidYMid meet" version="1.0"><path fill="#524b46" d="M 374.269531 228.550781 C 373.59375 223.417969 373.09375 218.179688 370.621094 213.484375 C 367.714844 207.96875 364.734375 202.496094 361.679688 197.066406 C 358.738281 191.839844 354.476562 187.808594 349.703125 184.253906 C 347.972656 183.097656 346.34375 181.8125 344.8125 180.402344 C 343.464844 179.015625 340.917969 178.859375 340.539062 176.101562 C 343.816406 173.269531 347.28125 170.417969 350.574219 167.394531 C 352.347656 165.769531 354.273438 164.085938 355.402344 162 C 360.566406 152.59375 365.253906 143.121094 367.160156 132.230469 C 368.960938 122.019531 366.738281 113.023438 362.042969 104.304688 C 360.03125 100.660156 357.78125 97.167969 355.300781 93.828125 C 353.636719 91.609375 351.765625 89.585938 349.683594 87.757812 C 343.4375 82.125 336.074219 78.207031 328.441406 74.945312 C 323.617188 72.777344 318.566406 71.8125 313.28125 72.058594 C 307.808594 72.375 302.292969 72.058594 297.261719 73.578125 C 295.757812 72.152344 295.777344 70.777344 295.796875 69.386719 C 295.859375 64.535156 295.890625 59.679688 295.953125 54.824219 C 296.1875 36.425781 286.511719 22.746094 274.636719 10.136719 C 273.863281 9.4375 273.027344 8.824219 272.128906 8.300781 C 263.394531 2.339844 253.921875 0.640625 243.53125 2.710938 C 239.109375 3.570312 234.933594 5.09375 231 7.28125 C 218.269531 14.324219 209.246094 25.320312 199.582031 35.664062 C 198.113281 37.171875 197.023438 38.914062 196.320312 40.898438 C 195.214844 44.410156 192.949219 46.96875 190.359375 49.253906 C 189.015625 50.367188 187.871094 51.65625 186.929688 53.125 C 185.988281 54.59375 185.289062 56.171875 184.835938 57.859375 C 184.777344 58.222656 184.652344 58.566406 184.460938 58.882812 C 184.265625 59.199219 184.019531 59.464844 183.71875 59.683594 C 183.421875 59.902344 183.089844 60.054688 182.730469 60.144531 C 182.371094 60.230469 182.007812 60.246094 181.640625 60.191406 C 179.226562 50.460938 174.0625 41.9375 168.566406 33.472656 C 161.855469 23.128906 153.878906 14.5 143 8.300781 C 134.617188 3.535156 125.972656 2.15625 116.984375 4.253906 C 101.476562 7.929688 88.871094 15.804688 82.042969 31.019531 C 81.332031 32.605469 80.523438 34.140625 79.695312 35.660156 C 77.359375 39.945312 75.652344 44.46875 74.570312 49.226562 C 73.488281 53.984375 73.074219 58.804688 73.328125 63.675781 C 73.761719 73.355469 74.550781 82.996094 77.117188 92.398438 C 77.632812 94.296875 77.90625 96.265625 78.257812 98.019531 C 76.753906 99.371094 75.40625 98.824219 74.117188 98.433594 C 66.648438 96.160156 58.816406 96.1875 51.453125 97.425781 C 34.097656 100.339844 19.679688 108.890625 9.113281 123.292969 C 7.601562 125.207031 6.398438 127.300781 5.511719 129.574219 C 2.445312 138.417969 0.0351562 147.394531 0.0546875 156.921875 C 0.0546875 166.230469 3.394531 174.632812 7.15625 182.757812 C 12.261719 193.796875 18.195312 204.417969 29.695312 210.40625 C 30.40625 210.773438 30.671875 212.015625 31.25 213.027344 C 29.792969 214.71875 28.363281 216.210938 27.132812 217.863281 C 25.898438 219.515625 24.351562 221.167969 23.828125 223.0625 C 21.238281 232.378906 17.441406 241.335938 15.734375 250.925781 C 13.039062 265.929688 17.136719 279.03125 26.644531 290.5625 C 29.707031 294.285156 33.113281 297.898438 37.636719 299.960938 C 42.355469 302.113281 47.078125 304.371094 52.027344 305.910156 C 64.523438 309.800781 77.152344 310.460938 89.789062 306.339844 C 99.984375 303.015625 110.082031 299.484375 118.949219 292.605469 C 120.96875 294.585938 120.84375 296.105469 120.445312 297.324219 C 118.421875 303.824219 118.765625 310.226562 120.445312 316.753906 C 121.539062 321.125 122.320312 325.554688 122.785156 330.039062 C 124.167969 342.679688 130.257812 352.734375 138.820312 361.84375 C 145.160156 368.589844 153.304688 370.949219 161.625 373.308594 C 167.417969 374.972656 172.503906 372.632812 177.648438 370.539062 C 178.28125 370.253906 178.9375 370.027344 179.609375 369.863281 C 188.863281 368.042969 195.941406 362.660156 202.394531 356.160156 C 205.09375 353.417969 207.117188 350.179688 209.207031 347.011719 C 210.507812 345.066406 211.632812 342.714844 214.535156 342.578125 C 217.277344 343.316406 219.496094 344.945312 221.621094 346.753906 C 227.648438 351.878906 234.75 354.339844 242.523438 355.066406 C 244.246094 355.230469 246.050781 354.996094 247.699219 355.414062 C 257.105469 357.804688 266.160156 356.316406 275.296875 353.691406 C 287.402344 350.207031 296.761719 342.722656 305.21875 333.929688 C 307.316406 331.75 308.515625 328.675781 309.984375 325.9375 C 310.792969 324.433594 311.171875 322.695312 312.007812 321.21875 C 313.425781 318.625 314.472656 315.890625 315.152344 313.015625 C 315.832031 310.136719 316.121094 307.222656 316.015625 304.269531 C 315.792969 297.324219 314.632812 290.539062 312.539062 283.914062 C 312 282.152344 310.019531 280.507812 311.386719 278.355469 C 313.027344 277.195312 314.757812 277.734375 316.472656 277.742188 C 322.015625 277.742188 327.566406 277.945312 333.09375 277.742188 C 346.128906 277.191406 357.175781 272.347656 366.082031 262.523438 C 371.714844 256.304688 374.722656 249.253906 374.847656 240.980469 C 374.941406 236.824219 374.75 232.679688 374.269531 228.550781 Z M 337.742188 86.855469 C 345.550781 89.640625 351.578125 94.609375 353.804688 103.164062 C 355.535156 109.828125 358.46875 116.246094 358.367188 123.28125 C 358.285156 131.980469 356.9375 140.476562 354.324219 148.769531 C 350.039062 162.210938 346.601562 166.035156 332.609375 172.519531 C 329.460938 171.265625 325.953125 169.855469 322.433594 168.476562 C 314.410156 165.296875 306.484375 161.839844 298.324219 159.035156 C 292.148438 156.921875 285.683594 155.664062 279.335938 154.011719 C 273.269531 155.417969 267.0625 153.050781 260.953125 154.570312 C 259.355469 154.96875 257.582031 154.628906 255.925781 154.628906 C 255.0625 150.839844 260.070312 151.46875 260.164062 148.617188 C 260.273438 145.109375 263.242188 144.355469 265.425781 142.796875 C 267.609375 141.238281 269.863281 139.527344 272.167969 137.832031 C 269.695312 135.351562 267.867188 139.714844 265.492188 137.949219 C 264.476562 136.148438 266.125 134.871094 266.921875 133.617188 C 272.464844 124.851562 278.386719 116.320312 283.691406 107.414062 C 286.140625 103.300781 287.582031 98.558594 289.214844 94.007812 C 290.039062 91.714844 290.566406 89.367188 292.769531 87.226562 C 299.242188 85.296875 305.925781 82.34375 313.371094 82.503906 C 321.730469 82.621094 329.855469 84.074219 337.742188 86.855469 Z M 296 78.992188 C 300.132812 77.417969 304.191406 75.621094 308.914062 76.292969 C 312.238281 76.757812 315.65625 76.382812 319.074219 76.382812 C 319.074219 76.828125 319.136719 77.273438 319.164062 77.730469 C 315.117188 77.933594 310.949219 77.730469 306.984375 78.472656 C 303.019531 79.214844 299.25 80.992188 295.566406 82.261719 C 293.496094 80.496094 295.089844 79.335938 296 78.992188 Z M 287.339844 38.09375 C 287.207031 37.519531 287.636719 36.8125 288.050781 35.21875 C 294.152344 45.960938 293.734375 56.980469 293.300781 67.953125 C 293.214844 70.300781 292.804688 73.042969 291.480469 74.824219 C 289.5 77.519531 289.992188 80.730469 288.109375 84.265625 C 287.03125 78.871094 286.917969 74.148438 287.8125 69.679688 C 288.878906 64.460938 289.375 59.1875 289.292969 53.859375 C 289.214844 48.535156 288.5625 43.277344 287.339844 38.09375 Z M 189.226562 74.175781 C 190.152344 71.941406 190.90625 69.648438 191.484375 67.296875 C 192.679688 62.230469 194.433594 57.363281 196.742188 52.695312 C 199.046875 48.027344 201.851562 43.679688 205.152344 39.652344 C 206.253906 38.3125 207.242188 36.894531 208.113281 35.394531 C 213.453125 26.191406 221.601562 19.699219 229.652344 13.144531 C 235.101562 8.734375 241.789062 7.84375 248.242188 7.824219 C 254.90625 7.816406 261.296875 9.136719 267.414062 11.78125 C 269.667969 12.71875 271.699219 14.007812 273.511719 15.648438 C 275.320312 17.285156 276.804688 19.179688 277.960938 21.328125 C 282.238281 29.042969 284.503906 37.324219 285.441406 45.984375 C 286.53125 55.988281 285.695312 70.839844 283.867188 81.925781 C 283.140625 86.363281 282.390625 90.8125 282.007812 95.289062 C 281.515625 100.988281 279.25 106.003906 276.539062 110.847656 C 272.492188 118.070312 269.34375 125.882812 262.917969 131.570312 C 257.523438 136.363281 252.800781 141.925781 246.46875 145.730469 C 241.191406 148.917969 236.457031 153.027344 230.738281 155.84375 L 227.824219 151.589844 C 223.96875 153.578125 221.035156 157.660156 215.84375 156.796875 C 216.078125 153.742188 218.984375 152.015625 218.621094 149.140625 C 216.707031 148.925781 215.835938 150.417969 214.75 151.625 C 211.585938 155.128906 208.679688 158.945312 204.632812 161.15625 C 202.6875 160.28125 203.675781 159.464844 204.191406 158.796875 C 208.539062 153.105469 212.957031 147.449219 217.285156 141.757812 C 219.375 139.058594 220.792969 136.054688 220.695312 132.53125 C 218.34375 132.601562 217.589844 134.683594 216.441406 136.207031 C 212.707031 141.191406 209.070312 146.261719 205.300781 151.21875 C 204.277344 152.566406 202.894531 153.625 201.167969 155.3125 C 200.097656 148.824219 204.683594 143.78125 203.300781 137.636719 L 197.296875 150.5625 C 194.882812 148.101562 196.246094 145.640625 195.863281 143.46875 C 195.511719 141.488281 196.402344 139.296875 194.609375 137.179688 C 193.191406 142.878906 194.007812 148.445312 193.574219 153.914062 C 193.402344 156.167969 194.992188 157.738281 196.3125 159.308594 C 196.921875 160.050781 196.777344 160.46875 195.996094 161.023438 C 195.445312 161.414062 193.765625 161.023438 193.339844 160.179688 C 192.914062 159.335938 192.085938 158.332031 192.023438 157.386719 C 191.308594 145.925781 187.601562 135.082031 185.28125 123.941406 C 184.519531 120.226562 183.839844 116.484375 183.351562 112.722656 C 181.660156 99.328125 184.109375 86.550781 189.226562 74.175781 Z M 194.621094 180.914062 C 195.304688 180.378906 196.078125 180.0625 196.941406 179.964844 C 197.804688 179.863281 198.628906 179.996094 199.414062 180.363281 C 200.015625 180.609375 200.398438 181.042969 200.5625 181.671875 C 200.527344 182.382812 200.222656 182.941406 199.644531 183.355469 C 197.40625 184.539062 196.285156 183.957031 194.632812 180.914062 Z M 197.316406 222.199219 C 195.605469 217.195312 195.625 217.1875 196.726562 211.828125 C 198.429688 215.496094 198.15625 218.691406 197.34375 222.199219 Z M 194.546875 208.996094 C 193.472656 203.675781 192.570312 199.175781 191.222656 192.488281 C 195.894531 202.265625 195.894531 202.265625 194.574219 208.996094 Z M 137.296875 10.742188 C 133.015625 12.953125 130.082031 8.839844 126.433594 9.171875 C 123.0625 9.472656 119.65625 9.230469 116.265625 9.230469 C 123.175781 8.4375 130.453125 5.933594 137.324219 10.769531 Z M 77.78125 69.570312 C 75.359375 51.761719 80.734375 36.351562 94.039062 24.652344 C 104.550781 15.402344 117.160156 11.34375 131.625 15.171875 C 140.527344 17.554688 148.867188 20.640625 155.671875 26.839844 C 161.109375 31.738281 165.785156 37.277344 169.703125 43.460938 C 173.617188 49.644531 176.628906 56.242188 178.734375 63.253906 C 179.515625 65.828125 179.40625 68.734375 179.40625 71.492188 C 179.40625 81.1875 179.476562 90.898438 179.097656 100.589844 C 178.816406 107.933594 180.15625 115.074219 181.207031 122.230469 C 182.558594 131.445312 184.53125 140.585938 186.253906 149.824219 C 182.523438 152.167969 180.738281 152.035156 179.03125 148.953125 C 177.324219 145.871094 175.894531 142.777344 174.210938 139.753906 C 173.628906 138.714844 173.125 137.3125 170.917969 137.523438 C 171.941406 144.441406 176.925781 149.660156 179.1875 156.457031 C 174.996094 154.394531 174.027344 153.761719 172.617188 151.925781 C 166.757812 144.234375 160.628906 136.734375 155.914062 128.222656 C 153.574219 123.996094 151.28125 119.734375 148.882812 115.53125 C 148.097656 114.183594 147.640625 112.4375 145.925781 111.804688 C 145.789062 114.15625 146.277344 116.371094 147.398438 118.445312 C 151.742188 127.132812 156.324219 135.648438 162.28125 143.394531 C 163.105469 144.5 163.761719 145.695312 164.257812 146.984375 C 164.382812 147.292969 163.710938 147.996094 163.304688 148.414062 C 163.210938 148.507812 162.691406 148.183594 162.367188 148.070312 C 161.726562 147.839844 161.078125 147.625 159.878906 147.21875 C 160.109375 150.785156 164.699219 152.117188 164.054688 156.308594 C 158.625 153.867188 155.289062 149.53125 151.539062 145.851562 C 147.890625 142.304688 144.476562 138.515625 141.023438 134.894531 C 139.460938 136.113281 139.980469 137.117188 140.613281 137.902344 C 149.378906 148.691406 158.691406 158.890625 170.957031 165.859375 C 171.257812 166.027344 171.484375 166.269531 171.632812 166.578125 C 171.882812 167.1875 172.308594 167.96875 172.105469 168.449219 C 171.9375 168.746094 171.710938 168.984375 171.421875 169.167969 C 171.136719 169.351562 170.820312 169.457031 170.480469 169.480469 C 162.320312 168.128906 154.253906 167.023438 147.09375 161.988281 C 132.433594 151.589844 117.910156 141.007812 104.421875 129.054688 C 99.980469 125.09375 96.363281 120.488281 93.578125 115.230469 C 89.691406 107.882812 86.011719 100.429688 82.539062 92.867188 C 80.628906 88.746094 79.519531 84.417969 79.222656 79.882812 C 78.980469 76.441406 78.273438 73.03125 77.808594 69.597656 Z M 178.550781 188.207031 C 175.820312 193.835938 171.714844 196.339844 168.523438 199.613281 C 165.332031 202.742188 162.472656 206.144531 159.945312 209.832031 C 157.34375 213.828125 154.324219 217.539062 150.953125 222.015625 C 149.871094 218.457031 151.457031 215.996094 152.832031 214.148438 C 159.871094 204.6875 166.292969 194.53125 178.550781 188.207031 Z M 160.628906 181.65625 C 154.855469 183.066406 149.03125 182.25 143.339844 181.367188 C 149.183594 179.824219 155.179688 180.753906 160.351562 178.328125 C 162.0625 179.777344 162.449219 181.210938 160.628906 181.65625 Z M 6.960938 152.417969 C 6.441406 157.140625 6.382812 161.859375 5.996094 168.945312 C 2.671875 159.371094 2.558594 151.925781 4.683594 144.710938 C 6.757812 137.65625 6.429688 129.398438 15.140625 123.132812 C 13.636719 129.769531 10.257812 133.550781 9.316406 138.175781 C 8.371094 142.804688 7.496094 147.644531 6.960938 152.417969 Z M 21.121094 194.902344 C 17.804688 192.785156 15.929688 189.324219 14.730469 185.710938 C 13.3125 181.449219 12.1875 177.113281 11.359375 172.703125 C 9.660156 163.757812 9.554688 154.796875 11.042969 145.816406 C 13.3125 132.425781 19.421875 120.96875 31.683594 113.734375 C 34.378906 112.15625 36.910156 110.359375 39.652344 108.882812 C 43.335938 106.941406 47.210938 105.371094 51.472656 105.34375 C 58.738281 105.296875 66.019531 105.128906 73.273438 105.429688 C 79.390625 105.679688 84.355469 107.914062 87.902344 113.636719 C 98.691406 131.027344 114.167969 143.773438 130.707031 155.359375 C 134.671875 158.128906 138.617188 160.921875 142.574219 163.707031 C 148.253906 167.707031 154.773438 169.992188 161.34375 172.609375 C 159.5625 174.078125 158.085938 173.179688 156.546875 172.851562 C 149.804688 171.394531 143 170.261719 136.472656 167.914062 C 135.535156 167.710938 134.585938 167.671875 133.632812 167.792969 C 133.707031 169.289062 134.941406 170.011719 136.042969 170.4375 C 140.222656 172.035156 144.484375 173.402344 149.109375 174.988281 C 148.089844 175.832031 146.960938 176.496094 145.722656 176.96875 C 144.488281 177.445312 143.207031 177.710938 141.882812 177.765625 C 137.046875 178.035156 132.203125 178.257812 127.355469 178.347656 C 122.859375 178.425781 118.355469 178.3125 113.871094 178.273438 C 108.691406 178.226562 103.53125 178.421875 98.453125 176.796875 C 95.207031 175.785156 91.941406 175.726562 88.65625 176.621094 C 96.84375 179.917969 105.277344 180.121094 113.085938 183 C 112.414062 184.515625 111.015625 184.105469 109.957031 184.152344 C 91.328125 185.035156 74.015625 190.625 57.421875 198.804688 C 55.5625 199.730469 53.589844 200.457031 51.796875 201.503906 C 45.863281 204.875 39.660156 204.328125 33.785156 202.007812 C 29.296875 200.25 25.183594 197.519531 21.109375 194.914062 Z M 22.15625 277.292969 C 20.042969 273.105469 18.054688 268.523438 19.253906 263.398438 C 21.722656 264.398438 21.589844 266.960938 22.1875 268.714844 C 24.582031 275.660156 27.859375 281.984375 32.800781 287.445312 C 33.859375 288.621094 34.507812 290.144531 35.34375 291.53125 C 28.277344 288.820312 25.0625 283.042969 22.15625 277.292969 Z M 49.753906 300.527344 C 45.230469 298.417969 42.160156 294.90625 40.058594 290.730469 C 40.832031 289.585938 41.3125 289.671875 42.039062 290.273438 C 45.972656 293.503906 49.945312 296.691406 53.929688 299.914062 C 53.667969 300.195312 53.367188 300.425781 53.027344 300.605469 C 52.6875 300.78125 52.328125 300.898438 51.949219 300.957031 C 51.570312 301.011719 51.191406 301.003906 50.816406 300.929688 C 50.4375 300.855469 50.085938 300.722656 49.753906 300.527344 Z M 121.828125 284.84375 C 116.667969 288.132812 111.878906 291.585938 106.75 294.378906 C 97.570312 299.390625 87.910156 303.097656 77.226562 303.179688 C 73.335938 303.332031 69.65625 302.53125 66.179688 300.777344 C 62.808594 298.984375 59.207031 297.664062 55.898438 295.808594 C 47.652344 291.183594 40.730469 285.261719 35.804688 276.886719 C 32.457031 271.207031 29.878906 265.199219 28.066406 258.863281 C 25.371094 249.527344 25.902344 240.425781 30.433594 231.679688 C 31.546875 229.535156 32.550781 227.324219 33.53125 225.105469 C 36.585938 218.144531 42.035156 213.214844 48.195312 209.371094 C 63.113281 200.085938 79.816406 195.421875 97.003906 192.796875 C 108.246094 191.070312 119.628906 189.804688 131.09375 189.972656 C 134.835938 190.019531 138.585938 189.089844 142.339844 188.832031 C 144.640625 188.671875 147.058594 187.605469 149.695312 189.507812 C 144.300781 193.28125 136.886719 192.742188 132.675781 198.226562 C 135.011719 199.519531 136.664062 197.734375 138.53125 197.074219 C 140.398438 196.410156 142.339844 195.625 144.558594 194.765625 C 144.558594 199.488281 139.730469 199.023438 138.207031 201.753906 C 138.878906 203.6875 140.230469 202.824219 141.253906 202.285156 C 143.675781 200.9375 145.933594 199.324219 148.363281 197.996094 C 151.679688 196.183594 155.105469 194.53125 158.125 192.972656 C 160 193.800781 159.628906 194.8125 159.007812 195.597656 C 156.210938 199.101562 153.339844 202.542969 150.535156 205.960938 C 150.78125 207.652344 152.265625 208.96875 151.207031 210.871094 C 149.496094 213.878906 148.121094 217.074219 146.488281 220.128906 C 137.992188 236.070312 132.867188 253.394531 126.121094 270.027344 C 124.261719 274.527344 123.371094 279.355469 121.828125 284.84375 Z M 135.03125 351.792969 C 131.085938 345.378906 127.300781 338.816406 126.5 330.949219 C 125.824219 324.445312 124.179688 318.046875 123.378906 311.5625 C 122.917969 307.851562 123.296875 304.046875 123.296875 300.480469 L 124.242188 299.980469 C 125.109375 302.921875 126.519531 305.816406 126.734375 308.800781 C 127.355469 317.480469 130.074219 325.714844 131.808594 334.144531 C 133.28125 341.003906 136.117188 347.25 140.308594 352.875 C 142.070312 355.289062 143.683594 357.832031 145.335938 360.292969 C 139.945312 359.28125 137.296875 355.488281 135.03125 351.792969 Z M 210.671875 325.203125 C 208.945312 334.3125 205.003906 342.132812 200.777344 350.078125 C 193.300781 364.132812 169.238281 370.308594 155.886719 362.480469 C 151.960938 360.195312 148.515625 357.332031 145.558594 353.886719 C 143.183594 351.113281 141.144531 348.109375 139.4375 344.882812 C 137.730469 341.652344 136.398438 338.277344 135.441406 334.75 C 133.121094 326.441406 130.984375 317.992188 129.816406 309.464844 C 128.042969 296.382812 127.59375 283.070312 131.167969 270.238281 C 135.132812 255.859375 140.605469 241.984375 149.597656 229.777344 C 154.539062 223.09375 159.386719 216.339844 164.203125 209.546875 C 167.808594 204.277344 172.304688 199.925781 177.6875 196.492188 C 172.414062 208.976562 167.007812 219.070312 167.210938 230.753906 C 170.621094 220.160156 174.277344 209.714844 180.175781 199.804688 C 180.8125 201.558594 181.269531 202.816406 181.714844 204.058594 C 183.570312 203.828125 183.738281 201.097656 186.488281 201.738281 C 188.894531 208.78125 190.484375 216 191.257812 223.398438 C 192.753906 238.703125 191.90625 253.878906 188.714844 268.921875 C 187.855469 272.96875 187.445312 276.898438 188.335938 280.960938 C 190.0625 271.082031 194.109375 261.773438 194.109375 252.011719 C 196.730469 251.128906 197.332031 252.320312 197.480469 253.722656 C 197.769531 257.128906 197.90625 260.546875 198.53125 263.960938 C 200.445312 255.300781 199.117188 246.535156 199.460938 237.835938 C 199.8125 228.875 199.960938 219.898438 200.210938 210.382812 C 202.691406 211.570312 202.449219 213.84375 203.152344 215.328125 C 209.285156 228.203125 213.617188 241.65625 216.152344 255.691406 C 218.175781 267.15625 220.992188 278.867188 217.199219 290.621094 C 217.074219 302.550781 212.847656 313.683594 210.671875 325.203125 Z M 219.261719 306.46875 C 221.554688 313.535156 220.691406 317.964844 214.742188 329.363281 C 213.894531 320.800781 217.445312 314.023438 219.261719 306.46875 Z M 278.125 342.539062 C 271.644531 344.925781 265.121094 347.199219 258.695312 349.714844 C 252.835938 352.007812 247.15625 351.46875 241.515625 349.15625 C 237.035156 347.3125 232.53125 345.519531 228.148438 343.484375 C 224.398438 341.738281 220.730469 339.800781 218.390625 335.964844 C 218.464844 334.925781 218.28125 333.8125 218.648438 332.929688 C 223.152344 321.90625 224.136719 310.105469 226.375 298.578125 C 226.578125 297.550781 226.617188 296.511719 226.488281 295.472656 C 225.1875 285.566406 225.667969 275.476562 223.152344 265.679688 C 221.4375 259.003906 220.304688 252.191406 218.78125 245.449219 C 218.1875 242.839844 219.328125 240.777344 220.597656 238.03125 L 211.761719 221.476562 C 218.503906 226.257812 221.78125 231.273438 225 236.3125 C 226.050781 237.972656 226.710938 240.042969 229.046875 240.425781 C 229.214844 239.5 229.390625 238.542969 229.644531 237.109375 C 232.160156 237.304688 233.941406 238.828125 235.761719 240.140625 C 240.785156 243.789062 245.566406 247.722656 251.417969 250.203125 C 254.164062 251.371094 256.394531 253.890625 258.648438 256.015625 C 261.40625 258.734375 264.636719 260.660156 268.339844 261.800781 C 271.363281 262.625 274.21875 263.835938 276.910156 265.441406 C 283.996094 269.949219 291.675781 272.933594 299.945312 274.398438 C 300.992188 274.710938 302 275.132812 302.957031 275.660156 C 304.925781 278.058594 305.722656 281.054688 306.082031 284.121094 C 307.429688 296.097656 305.769531 307.453125 300.125 318.335938 C 296.222656 325.875 290.550781 331.824219 285 337.972656 C 283.089844 340.066406 280.796875 341.589844 278.125 342.539062 Z M 208.816406 206.640625 C 209.488281 205.515625 210.164062 205.230469 210.695312 205.847656 C 216.863281 213.210938 223.007812 220.601562 229.125 228.019531 C 218.566406 224.28125 214.136719 214.976562 208.816406 206.640625 Z M 310.996094 293.378906 C 314.710938 306.191406 311.859375 317.082031 305.542969 327.421875 C 301.609375 333.847656 296.773438 337.867188 290.300781 339.855469 C 290.136719 339.785156 290 339.675781 289.886719 339.539062 C 289.773438 339.398438 289.699219 339.242188 289.664062 339.066406 C 289.625 338.890625 289.632812 338.714844 289.679688 338.542969 C 289.730469 338.371094 289.816406 338.21875 289.9375 338.089844 C 290.433594 337.179688 291.023438 336.339844 291.703125 335.558594 C 298.597656 328.964844 302.433594 320.441406 306.160156 311.957031 C 308.078125 307.609375 308.804688 302.734375 310.03125 298.082031 C 310.375 296.792969 310.578125 295.449219 310.996094 293.378906 Z M 367.640625 242.71875 C 366.292969 249.375 362.757812 255.617188 359.917969 261.917969 C 359.246094 263.371094 357.695312 264.613281 356.257812 265.46875 C 350.898438 268.75 345.136719 270.988281 338.96875 272.179688 C 320.910156 275.449219 303.902344 271.351562 287.042969 265.617188 C 284.132812 264.628906 281.46875 262.855469 278.777344 261.289062 C 264.136719 252.777344 249.28125 244.503906 237.273438 232.292969 C 232.195312 227.128906 227.710938 221.367188 223.109375 215.75 C 220.738281 212.851562 218.695312 209.683594 216.597656 206.777344 C 217.589844 205.429688 218.511719 205.292969 219.53125 205.757812 C 222.605469 207.167969 225.304688 209.582031 228.972656 209.320312 C 229.019531 207.6875 227.722656 207.128906 226.597656 206.4375 C 221.878906 203.554688 217.070312 200.835938 212.523438 197.714844 C 209.277344 195.636719 206.582031 193 204.433594 189.804688 C 205.597656 187.410156 207.5 188.070312 208.390625 189.40625 C 212.289062 195.238281 218.257812 197.847656 224.367188 200.304688 C 224.863281 200.503906 225.605469 200.09375 226.558594 199.90625 C 222.199219 196 215.929688 194.726562 212.644531 188.746094 C 220.699219 187.605469 228.714844 187.847656 236.6875 189.464844 C 243.070312 190.816406 249.308594 192.839844 255.65625 194.429688 C 257.453125 194.875 259.523438 195.871094 261.40625 193.484375 C 245.800781 188.515625 230.386719 183.78125 212.308594 184.042969 C 227.460938 179.722656 246.976562 182.90625 266.253906 192.222656 C 269.132812 191.726562 272.167969 190.011719 275.695312 191.839844 C 280.273438 194.207031 285.222656 195.886719 290.023438 197.792969 C 293.125 199.046875 296.058594 200.871094 299.554688 200.929688 C 299.304688 199.027344 297.609375 198.328125 296.230469 197.707031 C 278.203125 189.613281 259.742188 182.609375 240.210938 179.230469 C 232.078125 177.820312 223.652344 178.144531 215.351562 177.738281 C 212.957031 177.625 210.554688 177.738281 207.933594 177.738281 C 209.957031 174.828125 212.910156 177.246094 214.9375 175.871094 C 216.992188 174.507812 219.238281 173.660156 221.683594 173.324219 C 224.0625 172.953125 226.449219 172.136719 228.816406 172.210938 C 238.242188 172.363281 247.574219 173.355469 256.820312 175.191406 C 257.691406 173.523438 255.984375 172.9375 255.136719 172.589844 C 250.277344 170.574219 245.222656 169.578125 239.960938 169.601562 C 236.652344 169.601562 233.070312 170.613281 230.082031 168.433594 C 229.800781 166.410156 231.101562 165.738281 232.316406 165.148438 C 236.753906 163.078125 241.5625 162.296875 246.335938 161.535156 C 255.308594 160.15625 264.25 160.320312 273.167969 162.027344 C 283 163.84375 292.992188 165.097656 302.445312 168.644531 C 303.425781 168.992188 304.433594 169.21875 305.46875 169.316406 C 321.164062 170.910156 334.570312 178.007812 346.804688 187.296875 C 349.589844 189.382812 352.152344 191.714844 354.488281 194.292969 C 356.828125 196.871094 358.902344 199.648438 360.710938 202.621094 C 362.519531 205.597656 364.027344 208.714844 365.242188 211.976562 C 366.453125 215.242188 367.34375 218.589844 367.917969 222.023438 C 369.109375 228.9375 369.011719 235.835938 367.632812 242.71875 Z M 367.640625 242.71875 " fill-opacity="1" fill-rule="nonzero"/><path fill="#524b46" d="M 231.730469 212.183594 C 236.726562 214.503906 241.722656 216.816406 246.792969 218.976562 C 249.015625 219.898438 251.300781 220.617188 253.652344 221.140625 C 254.691406 221.375 255.53125 220.605469 255.558594 218.820312 C 252.253906 217.667969 248.453125 217.472656 245.175781 215.609375 C 241.898438 213.75 238.351562 212.3125 234.960938 210.621094 C 233.105469 209.695312 231.257812 208.921875 229.132812 209.394531 C 229.296875 210.929688 230.523438 211.605469 231.730469 212.183594 Z M 231.730469 212.183594 " fill-opacity="1" fill-rule="nonzero"/><path fill="#524b46" d="M 229.132812 209.394531 C 229.132812 209.359375 229.132812 209.339844 229.132812 209.304688 L 229.039062 209.304688 C 229.042969 209.335938 229.042969 209.367188 229.039062 209.398438 Z M 229.132812 209.394531 " fill-opacity="1" fill-rule="nonzero"/><path fill="#524b46" d="M 257.746094 202.960938 C 257.851562 203.054688 257.96875 203.140625 258.074219 203.242188 C 258.207031 203.21875 258.339844 203.203125 258.472656 203.195312 C 258.414062 203.121094 258.351562 203.054688 258.296875 202.980469 Z M 257.746094 202.960938 " fill-opacity="1" fill-rule="nonzero"/><path fill="#524b46" d="M 239.011719 197.011719 C 238.140625 196.953125 237.230469 197.53125 235.140625 198.207031 C 241.882812 199.898438 247.496094 201.375 253.140625 202.664062 C 254.664062 202.910156 256.199219 203.011719 257.746094 202.960938 C 254.128906 199.816406 249.289062 199.703125 245.082031 198.023438 C 243.214844 197.28125 241.054688 197.160156 239.011719 197.011719 Z M 239.011719 197.011719 " fill-opacity="1" fill-rule="nonzero"/><path fill="#524b46" d="M 318.488281 208.421875 C 313.492188 205.402344 308.21875 202.972656 302.675781 201.140625 C 301.832031 200.960938 300.988281 200.960938 300.148438 201.140625 C 304.78125 205.058594 310.445312 206.992188 315.945312 209.230469 C 316.390625 209.425781 317.132812 208.90625 318.488281 208.421875 Z M 318.488281 208.421875 " fill-opacity="1" fill-rule="nonzero"/><path fill="#524b46" d="M 300.148438 201.171875 L 299.878906 200.945312 L 299.628906 200.945312 C 299.628906 201.039062 299.628906 201.125 299.628906 201.21875 C 299.816406 201.207031 299.976562 201.191406 300.148438 201.171875 Z M 300.148438 201.171875 " fill-opacity="1" fill-rule="nonzero"/><path fill="#524b46" d="M 258.472656 203.195312 C 261.386719 206.929688 265.890625 206.507812 269.976562 207.242188 C 266.261719 205.597656 262.984375 202.644531 258.472656 203.195312 Z M 258.472656 203.195312 " fill-opacity="1" fill-rule="nonzero"/><path fill="#524b46" d="M 218.816406 148.796875 L 218.605469 148.953125 C 218.605469 149.011719 218.605469 149.074219 218.605469 149.136719 L 218.816406 149.136719 C 218.824219 149.035156 218.824219 148.890625 218.816406 148.796875 Z M 218.816406 148.796875 " fill-opacity="1" fill-rule="nonzero"/><path fill="#524b46" d="M 224.175781 141.203125 C 221.390625 143.539062 218.578125 145.089844 218.816406 148.796875 C 223.414062 145.519531 223.367188 145.398438 224.175781 141.203125 Z M 224.175781 141.203125 " fill-opacity="1" fill-rule="nonzero"/><path fill="#524b46" d="M 220.867188 132.128906 L 220.683594 132.304688 C 220.683594 132.378906 220.683594 132.453125 220.683594 132.527344 L 220.953125 132.527344 C 220.914062 132.390625 220.894531 132.261719 220.867188 132.128906 Z M 220.867188 132.128906 " fill-opacity="1" fill-rule="nonzero"/><path fill="#524b46" d="M 224.171875 124.832031 C 221.425781 126.71875 220.257812 129.046875 220.867188 132.128906 C 224.25 128.957031 224.265625 128.878906 224.171875 124.832031 Z M 224.171875 124.832031 " fill-opacity="1" fill-rule="nonzero"/><path fill="#524b46" d="M 243.1875 82.691406 C 243.117188 81.742188 242.746094 81.492188 242.214844 82.019531 C 241.230469 84.265625 239.417969 86.382812 240.523438 90.199219 C 241.3125 87.078125 243.335938 85.355469 243.1875 82.691406 Z M 243.1875 82.691406 " fill-opacity="1" fill-rule="nonzero"/><path fill="#524b46" d="M 145.636719 111.304688 C 145.636719 111.425781 145.679688 111.546875 145.691406 111.667969 C 145.703125 111.789062 145.851562 111.738281 145.941406 111.769531 C 145.941406 111.65625 145.941406 111.539062 145.941406 111.425781 C 145.859375 111.378906 145.746094 111.34375 145.636719 111.304688 Z M 145.636719 111.304688 " fill-opacity="1" fill-rule="nonzero"/><path fill="#524b46" d="M 144.207031 110.625 C 144.625 110.984375 145.105469 111.210938 145.652344 111.296875 C 144.949219 106.515625 143.152344 102.191406 140.257812 98.324219 C 140.335938 102.84375 141.449219 107.007812 144.207031 110.625 Z M 144.207031 110.625 " fill-opacity="1" fill-rule="nonzero"/><path fill="#524b46" d="M 166.5 126.671875 C 165.828125 125.140625 165.273438 123.570312 164.539062 122.085938 C 163.628906 120.246094 162.589844 118.480469 161.074219 115.703125 C 159.933594 121.507812 163.25 124.339844 166.5 126.671875 Z M 166.5 126.671875 " fill-opacity="1" fill-rule="nonzero"/><path fill="#524b46" d="M 194.574219 285.742188 C 194.152344 289.769531 193.265625 293.695312 191.917969 297.515625 C 191.429688 298.929688 190.878906 300.695312 192.589844 301.984375 C 195.714844 296.589844 195.363281 290.617188 195.613281 284.75 C 195.160156 285.066406 194.605469 285.375 194.574219 285.742188 Z M 194.574219 285.742188 " fill-opacity="1" fill-rule="nonzero"/><path fill="#524b46" d="M 195.632812 284.75 C 195.746094 284.675781 195.855469 284.59375 195.960938 284.507812 C 195.960938 284.242188 195.960938 283.972656 195.960938 283.703125 C 195.855469 283.886719 195.746094 284.066406 195.625 284.25 Z M 195.632812 284.75 " fill-opacity="1" fill-rule="nonzero"/><path fill="#524b46" d="M 195.988281 283.703125 C 198.828125 279.039062 197.863281 273.988281 197.257812 266.847656 C 195.417969 273.785156 196.132812 278.820312 195.988281 283.703125 Z M 195.988281 283.703125 " fill-opacity="1" fill-rule="nonzero"/><path fill="#524b46" d="M 82.789062 242.683594 C 82.117188 243.613281 81.003906 244.707031 82.703125 245.78125 L 93.25 235.78125 L 92.15625 234.03125 C 88.914062 236.730469 85.3125 239.042969 82.789062 242.683594 Z M 82.789062 242.683594 " fill-opacity="1" fill-rule="nonzero"/><path fill="#524b46" d="M 129.199219 207.558594 C 125.601562 209.054688 122.152344 211.265625 120.605469 215.738281 L 129.609375 209.371094 C 130.398438 208.792969 130.429688 208.28125 129.199219 207.558594 Z M 129.199219 207.558594 " fill-opacity="1" fill-rule="nonzero"/><path fill="#524b46" d="M 96.507812 231.417969 C 100.207031 230.742188 100.207031 230.742188 103.707031 225.628906 C 100.277344 227.234375 97.941406 228.515625 96.507812 231.417969 Z M 96.507812 231.417969 " fill-opacity="1" fill-rule="nonzero"/><path fill="#524b46" d="M 133.121094 167.523438 L 133.351562 167.808594 L 133.613281 167.808594 C 133.613281 167.699219 133.613281 167.605469 133.613281 167.496094 C 133.417969 167.496094 133.277344 167.515625 133.121094 167.523438 Z M 133.121094 167.523438 " fill-opacity="1" fill-rule="nonzero"/><path fill="#524b46" d="M 129.839844 166.121094 C 124.445312 169.0625 119.265625 168.035156 113.902344 166.261719 C 112.683594 165.859375 110.945312 164.914062 109.566406 167.046875 C 116.3125 168.960938 122.546875 172.238281 129.714844 171.292969 C 129.863281 168.804688 131.066406 167.671875 133.121094 167.523438 C 132.210938 166.464844 130.828125 165.574219 129.839844 166.121094 Z M 129.839844 166.121094 " fill-opacity="1" fill-rule="nonzero"/><path fill="#524b46" d="M 235.769531 250.378906 C 233.746094 247.242188 233.113281 243.277344 229.988281 240.832031 C 229.746094 240.707031 229.492188 240.65625 229.222656 240.675781 C 229.894531 246.109375 233.394531 249.988281 236.214844 254.546875 C 237.601562 252.542969 236.457031 251.449219 235.769531 250.378906 Z M 235.769531 250.378906 " fill-opacity="1" fill-rule="nonzero"/><path fill="#524b46" d="M 229.222656 240.675781 C 229.222656 240.601562 229.222656 240.535156 229.1875 240.464844 L 229.023438 240.433594 L 228.984375 240.65625 Z M 229.222656 240.675781 " fill-opacity="1" fill-rule="nonzero"/></svg>