<svg xmlns="http://www.w3.org/2000/svg" xmlns:xlink="http://www.w3.org/1999/xlink" width="500" zoomAndPan="magnify" viewBox="0 0 375 374.999991" height="500" preserveAspectRatio="xMidYMid meet" version="1.0"><defs><g/><clipPath id="4f022773bc"><path d="M 19.960938 18.175781 L 355.210938 18.175781 L 355.210938 353.425781 L 19.960938 353.425781 Z M 19.960938 18.175781 " clip-rule="nonzero"/></clipPath></defs><g clip-path="url(#4f022773bc)"><path fill="#000000" d="M 187.484375 353.21875 C 142.738281 353.21875 100.667969 335.796875 69.027344 304.152344 C 37.386719 272.511719 19.960938 230.445312 19.960938 185.699219 C 19.960938 140.949219 37.386719 98.882812 69.027344 67.242188 C 100.667969 35.597656 142.738281 18.175781 187.484375 18.175781 C 232.230469 18.175781 274.300781 35.597656 305.941406 67.242188 C 337.582031 98.882812 355.007812 140.949219 355.007812 185.699219 C 355.007812 230.445312 337.582031 272.511719 305.941406 304.152344 C 274.300781 335.796875 232.230469 353.21875 187.484375 353.21875 Z M 187.484375 19.554688 C 143.105469 19.554688 101.382812 36.835938 70.003906 68.214844 C 38.621094 99.597656 21.339844 141.320312 21.339844 185.699219 C 21.339844 230.074219 38.621094 271.796875 70.003906 303.179688 C 101.382812 334.558594 143.105469 351.839844 187.484375 351.839844 C 231.863281 351.839844 273.585938 334.558594 304.96875 303.179688 C 336.347656 271.796875 353.628906 230.074219 353.628906 185.699219 C 353.628906 141.320312 336.347656 99.597656 304.96875 68.214844 C 273.585938 36.835938 231.863281 19.554688 187.484375 19.554688 Z M 187.484375 19.554688 " fill-opacity="1" fill-rule="nonzero"/></g><path fill="#000000" d="M 187.484375 295.917969 C 126.707031 295.917969 77.261719 246.472656 77.261719 185.699219 C 77.261719 124.921875 126.707031 75.476562 187.484375 75.476562 C 248.261719 75.476562 297.707031 124.921875 297.707031 185.699219 C 297.707031 246.472656 248.261719 295.917969 187.484375 295.917969 Z M 187.484375 76.855469 C 127.46875 76.855469 78.640625 125.679688 78.640625 185.699219 C 78.640625 245.714844 127.46875 294.539062 187.484375 294.539062 C 247.5 294.539062 296.328125 245.714844 296.328125 185.699219 C 296.328125 125.679688 247.5 76.855469 187.484375 76.855469 Z M 187.484375 76.855469 " fill-opacity="1" fill-rule="nonzero"/><path fill="#000000" d="M 52.636719 185.699219 C 52.636719 187.890625 50.859375 189.667969 48.664062 189.667969 C 46.472656 189.667969 44.695312 187.890625 44.695312 185.699219 C 44.695312 183.503906 46.472656 181.726562 48.664062 181.726562 C 50.859375 181.726562 52.636719 183.503906 52.636719 185.699219 Z M 326.304688 181.726562 C 324.113281 181.726562 322.335938 183.503906 322.335938 185.699219 C 322.335938 187.890625 324.113281 189.667969 326.304688 189.667969 C 328.496094 189.667969 330.273438 187.890625 330.273438 185.699219 C 330.273438 183.503906 328.496094 181.726562 326.304688 181.726562 Z M 326.304688 181.726562 " fill-opacity="1" fill-rule="nonzero"/><g fill="#000000" fill-opacity="1"><g transform="translate(111.698321, 79.997479)"><g><path d="M 0.71875 -0.453125 L 0.5625 -0.6875 C 0.800781 -0.96875 0.867188 -1.273438 0.765625 -1.609375 C 0.671875 -1.953125 0.425781 -2.4375 0.03125 -3.0625 L -4.109375 -9.671875 C -4.546875 -10.367188 -4.929688 -10.890625 -5.265625 -11.234375 C -5.609375 -11.585938 -5.925781 -11.8125 -6.21875 -11.90625 C -6.507812 -12 -6.816406 -12.003906 -7.140625 -11.921875 L -7.296875 -12.15625 L -4.71875 -13.765625 L 3.9375 -9.40625 L 3.546875 -18.953125 L 5.984375 -20.46875 L 6.140625 -20.234375 C 5.929688 -19.992188 5.800781 -19.71875 5.75 -19.40625 C 5.695312 -19.101562 5.753906 -18.722656 5.921875 -18.265625 C 6.085938 -17.816406 6.390625 -17.242188 6.828125 -16.546875 L 10.96875 -9.9375 C 11.363281 -9.3125 11.695312 -8.878906 11.96875 -8.640625 C 12.238281 -8.410156 12.539062 -8.332031 12.875 -8.40625 L 13.03125 -8.171875 L 9.84375 -6.171875 L 9.6875 -6.40625 C 9.914062 -6.6875 9.984375 -7 9.890625 -7.34375 C 9.796875 -7.6875 9.550781 -8.171875 9.15625 -8.796875 L 3.953125 -17.09375 L 4.375 -7.28125 L 3.96875 -7.03125 L -4.75 -11.40625 L -0.296875 -4.28125 C 0.140625 -3.582031 0.523438 -3.0625 0.859375 -2.71875 C 1.203125 -2.382812 1.53125 -2.179688 1.84375 -2.109375 C 2.164062 -2.035156 2.503906 -2.039062 2.859375 -2.125 L 3.015625 -1.890625 Z M 0.71875 -0.453125 "/></g></g></g><g fill="#000000" fill-opacity="1"><g transform="translate(134.532221, 66.922708)"><g><path d="M -0.390625 0.15625 L -0.5 -0.109375 C -0.25 -0.328125 -0.0507812 -0.628906 0.09375 -1.015625 C 0.238281 -1.398438 0.3125 -1.957031 0.3125 -2.6875 L 0.40625 -12.828125 C 0.40625 -13.234375 0.257812 -13.5625 -0.03125 -13.8125 L -0.484375 -14.265625 L 1.03125 -15.8125 L 10.078125 -6.5 C 10.585938 -5.988281 11.019531 -5.640625 11.375 -5.453125 C 11.726562 -5.265625 12.035156 -5.160156 12.296875 -5.140625 L 12.40625 -4.875 L 8.96875 -3.53125 L 8.859375 -3.796875 C 9.128906 -4.015625 9.164062 -4.25 8.96875 -4.5 C 8.78125 -4.757812 8.429688 -5.144531 7.921875 -5.65625 L 5.71875 -7.9375 L 0.6875 -5.953125 L 0.671875 -2.828125 C 0.660156 -2.097656 0.738281 -1.59375 0.90625 -1.3125 C 1.082031 -1.03125 1.335938 -0.914062 1.671875 -0.96875 L 1.78125 -0.703125 Z M 0.703125 -6.296875 L 5.484375 -8.1875 L 0.765625 -13.03125 Z M 0.703125 -6.296875 "/></g></g></g><g fill="#000000" fill-opacity="1"><g transform="translate(155.784855, 59.455879)"><g><path d="M 11.0625 -2.15625 C 10.507812 -2.039062 10.046875 -2.070312 9.671875 -2.25 C 9.296875 -2.425781 8.929688 -2.738281 8.578125 -3.1875 C 8.234375 -3.632812 7.828125 -4.21875 7.359375 -4.9375 C 6.910156 -5.59375 6.53125 -6.144531 6.21875 -6.59375 C 5.914062 -7.050781 5.644531 -7.410156 5.40625 -7.671875 C 5.164062 -7.929688 4.894531 -8.097656 4.59375 -8.171875 C 4.300781 -8.242188 3.941406 -8.238281 3.515625 -8.15625 L 2.34375 -7.90625 L 3.296875 -3.328125 C 3.453125 -2.609375 3.613281 -2.085938 3.78125 -1.765625 C 3.945312 -1.453125 4.207031 -1.273438 4.5625 -1.234375 L 4.625 -0.953125 L 0.9375 -0.1875 L 0.875 -0.46875 C 1.175781 -0.644531 1.34375 -0.910156 1.375 -1.265625 C 1.414062 -1.628906 1.359375 -2.171875 1.203125 -2.890625 L -0.625 -11.71875 C -0.769531 -12.4375 -0.929688 -12.953125 -1.109375 -13.265625 C -1.285156 -13.585938 -1.546875 -13.757812 -1.890625 -13.78125 L -1.953125 -14.0625 L 2.203125 -14.9375 C 3.285156 -15.15625 4.1875 -15.25 4.90625 -15.21875 C 5.632812 -15.1875 6.207031 -15.054688 6.625 -14.828125 C 7.050781 -14.609375 7.378906 -14.320312 7.609375 -13.96875 C 7.847656 -13.625 8.007812 -13.25 8.09375 -12.84375 C 8.28125 -11.925781 8.117188 -11.085938 7.609375 -10.328125 C 7.109375 -9.566406 6.210938 -8.960938 4.921875 -8.515625 C 5.492188 -8.566406 5.976562 -8.550781 6.375 -8.46875 C 6.78125 -8.394531 7.140625 -8.234375 7.453125 -7.984375 C 7.773438 -7.742188 8.085938 -7.414062 8.390625 -7 C 8.703125 -6.59375 9.054688 -6.082031 9.453125 -5.46875 C 9.992188 -4.675781 10.40625 -4.078125 10.6875 -3.671875 C 10.976562 -3.265625 11.226562 -3.003906 11.4375 -2.890625 C 11.644531 -2.773438 11.863281 -2.742188 12.09375 -2.796875 C 12.15625 -2.804688 12.207031 -2.816406 12.25 -2.828125 C 12.300781 -2.835938 12.347656 -2.851562 12.390625 -2.875 L 12.453125 -2.59375 C 12.234375 -2.488281 11.988281 -2.394531 11.71875 -2.3125 C 11.445312 -2.238281 11.226562 -2.1875 11.0625 -2.15625 Z M 2.28125 -8.234375 L 3.546875 -8.5 C 4.296875 -8.65625 4.875 -8.90625 5.28125 -9.25 C 5.6875 -9.59375 5.945312 -10 6.0625 -10.46875 C 6.1875 -10.9375 6.195312 -11.425781 6.09375 -11.9375 C 5.976562 -12.476562 5.75 -12.976562 5.40625 -13.4375 C 5.0625 -13.90625 4.597656 -14.242188 4.015625 -14.453125 C 3.429688 -14.671875 2.722656 -14.691406 1.890625 -14.515625 C 1.609375 -14.460938 1.316406 -14.394531 1.015625 -14.3125 Z M 2.28125 -8.234375 "/></g></g></g><g fill="#000000" fill-opacity="1"><g transform="translate(177.660149, 55.860749)"><g><path d="M 0.953125 -0.0625 L 0.9375 -0.34375 C 1.257812 -0.476562 1.460938 -0.71875 1.546875 -1.0625 C 1.628906 -1.414062 1.648438 -1.957031 1.609375 -2.6875 L 1.046875 -11.703125 C 1.003906 -12.421875 0.914062 -12.945312 0.78125 -13.28125 C 0.65625 -13.625 0.425781 -13.835938 0.09375 -13.921875 L 0.078125 -14.203125 L 3.828125 -14.4375 L 3.84375 -14.15625 C 3.507812 -14.03125 3.304688 -13.789062 3.234375 -13.4375 C 3.160156 -13.09375 3.144531 -12.5625 3.1875 -11.84375 L 3.75 -2.828125 C 3.789062 -2.097656 3.867188 -1.5625 3.984375 -1.21875 C 4.109375 -0.882812 4.34375 -0.671875 4.6875 -0.578125 L 4.703125 -0.296875 Z M 0.953125 -0.0625 "/></g></g></g><g fill="#000000" fill-opacity="1"><g transform="translate(192.985281, 55.340557)"><g><path d="M -0.421875 -0.03125 L -0.40625 -0.3125 C -0.0820312 -0.40625 0.226562 -0.59375 0.53125 -0.875 C 0.832031 -1.15625 1.148438 -1.617188 1.484375 -2.265625 L 6.015625 -11.3125 C 6.191406 -11.6875 6.207031 -12.054688 6.0625 -12.421875 L 5.859375 -13.015625 L 7.921875 -13.734375 L 11.921875 -1.390625 C 12.140625 -0.710938 12.367188 -0.207031 12.609375 0.125 C 12.847656 0.457031 13.078125 0.6875 13.296875 0.8125 L 13.28125 1.09375 L 9.609375 0.796875 L 9.625 0.515625 C 9.96875 0.429688 10.109375 0.234375 10.046875 -0.078125 C 9.984375 -0.398438 9.84375 -0.898438 9.625 -1.578125 L 8.640625 -4.59375 L 3.25 -5.03125 L 1.859375 -2.234375 C 1.523438 -1.585938 1.375 -1.097656 1.40625 -0.765625 C 1.4375 -0.441406 1.613281 -0.226562 1.9375 -0.125 L 1.921875 0.15625 Z M 3.40625 -5.34375 L 8.53125 -4.921875 L 6.453125 -11.359375 Z M 3.40625 -5.34375 "/></g></g></g><g fill="#000000" fill-opacity="1"><g transform="translate(215.34678, 58.014371)"><g><path d="M 0.921875 0.234375 L 1 -0.03125 C 1.34375 -0.0625 1.609375 -0.226562 1.796875 -0.53125 C 1.984375 -0.84375 2.164062 -1.351562 2.34375 -2.0625 L 4.609375 -10.796875 C 4.796875 -11.503906 4.878906 -12.035156 4.859375 -12.390625 C 4.847656 -12.753906 4.695312 -13.03125 4.40625 -13.21875 L 4.46875 -13.484375 L 9.3125 -12.234375 C 10.914062 -11.816406 11.988281 -11.289062 12.53125 -10.65625 C 13.070312 -10.019531 13.238281 -9.304688 13.03125 -8.515625 C 12.863281 -7.847656 12.46875 -7.300781 11.84375 -6.875 C 11.21875 -6.445312 10.253906 -6.285156 8.953125 -6.390625 C 10.554688 -5.910156 11.679688 -5.234375 12.328125 -4.359375 C 12.972656 -3.484375 13.171875 -2.554688 12.921875 -1.578125 C 12.796875 -0.992188 12.546875 -0.460938 12.171875 0.015625 C 11.796875 0.503906 11.289062 0.90625 10.65625 1.21875 C 10.03125 1.53125 9.257812 1.703125 8.34375 1.734375 C 7.425781 1.773438 6.367188 1.644531 5.171875 1.34375 Z M 4.296875 -1.03125 C 4.117188 -0.332031 4.066406 0.140625 4.140625 0.390625 C 4.210938 0.640625 4.460938 0.820312 4.890625 0.9375 L 5.4375 1.078125 C 6.84375 1.441406 7.957031 1.367188 8.78125 0.859375 C 9.601562 0.359375 10.144531 -0.410156 10.40625 -1.453125 C 10.707031 -2.617188 10.613281 -3.664062 10.125 -4.59375 C 9.644531 -5.519531 8.675781 -6.171875 7.21875 -6.546875 L 5.828125 -6.90625 Z M 5.90625 -7.234375 L 7.640625 -6.796875 C 8.367188 -6.609375 9 -6.703125 9.53125 -7.078125 C 10.0625 -7.460938 10.414062 -7.988281 10.59375 -8.65625 C 10.8125 -9.53125 10.691406 -10.273438 10.234375 -10.890625 C 9.785156 -11.515625 9.054688 -11.957031 8.046875 -12.21875 L 7.25 -12.421875 Z M 5.90625 -7.234375 "/></g></g></g><g fill="#000000" fill-opacity="1"><g transform="translate(236.741786, 64.426612)"><g><path d="M 0.875 0.390625 L 0.984375 0.140625 C 1.335938 0.160156 1.628906 0.0351562 1.859375 -0.234375 C 2.085938 -0.503906 2.351562 -0.972656 2.65625 -1.640625 L 6.3125 -9.890625 C 6.601562 -10.554688 6.769531 -11.066406 6.8125 -11.421875 C 6.863281 -11.785156 6.757812 -12.082031 6.5 -12.3125 L 6.609375 -12.5625 L 10.046875 -11.046875 L 9.9375 -10.796875 C 9.59375 -10.835938 9.300781 -10.71875 9.0625 -10.4375 C 8.832031 -10.164062 8.570312 -9.695312 8.28125 -9.03125 L 4.140625 0.328125 C 3.859375 0.941406 4.023438 1.390625 4.640625 1.671875 L 6.15625 2.328125 C 7.09375 2.753906 7.894531 2.941406 8.5625 2.890625 C 9.226562 2.835938 9.921875 2.5 10.640625 1.875 L 10.859375 2.03125 L 9.6875 4.296875 Z M 0.875 0.390625 "/></g></g></g><g fill="#000000" fill-opacity="1"><g transform="translate(255.338851, 73.461558)"><g><path d="M 0.796875 0.515625 L 0.953125 0.28125 C 1.296875 0.375 1.601562 0.300781 1.875 0.0625 C 2.15625 -0.164062 2.492188 -0.582031 2.890625 -1.1875 L 7.828125 -8.75 C 8.222656 -9.363281 8.46875 -9.84375 8.5625 -10.1875 C 8.664062 -10.53125 8.609375 -10.84375 8.390625 -11.125 L 8.53125 -11.359375 L 16.671875 -6.046875 L 15.296875 -3.515625 L 15.0625 -3.640625 C 15.269531 -4.679688 15.1875 -5.539062 14.8125 -6.21875 C 14.4375 -6.894531 13.773438 -7.539062 12.828125 -8.15625 L 10.828125 -9.453125 L 7.515625 -4.375 L 9.15625 -3.3125 C 9.84375 -2.863281 10.410156 -2.554688 10.859375 -2.390625 C 11.316406 -2.222656 11.703125 -2.171875 12.015625 -2.234375 C 12.335938 -2.304688 12.644531 -2.457031 12.9375 -2.6875 L 13.171875 -2.53125 L 11.296875 0.3125 L 11.0625 0.15625 C 11.164062 -0.195312 11.179688 -0.53125 11.109375 -0.84375 C 11.046875 -1.164062 10.847656 -1.5 10.515625 -1.84375 C 10.179688 -2.195312 9.671875 -2.597656 8.984375 -3.046875 L 7.34375 -4.109375 L 4 1.015625 C 3.625 1.578125 3.722656 2.039062 4.296875 2.40625 L 5.921875 3.46875 C 6.785156 4.03125 7.613281 4.347656 8.40625 4.421875 C 9.207031 4.492188 10.046875 4.195312 10.921875 3.53125 L 11.109375 3.734375 L 9.390625 6.125 Z M 0.796875 0.515625 "/></g></g></g><g fill="#000000" fill-opacity="1"><g transform="translate(270.722865, 289.672706)"><g><path d="M -0.6875 0.484375 L -0.53125 0.71875 C -0.738281 1.007812 -0.785156 1.320312 -0.671875 1.65625 C -0.554688 2 -0.289062 2.46875 0.125 3.0625 L 4.625 9.453125 C 5.09375 10.117188 5.503906 10.617188 5.859375 10.953125 C 6.222656 11.285156 6.550781 11.488281 6.84375 11.5625 C 7.144531 11.632812 7.453125 11.617188 7.765625 11.515625 L 7.921875 11.75 L 5.4375 13.515625 L -3.4375 9.59375 L -2.53125 19.125 L -4.890625 20.78125 L -5.046875 20.546875 C -4.847656 20.273438 -4.734375 19.988281 -4.703125 19.6875 C -4.671875 19.382812 -4.75 19.007812 -4.9375 18.5625 C -5.132812 18.113281 -5.46875 17.554688 -5.9375 16.890625 L -10.4375 10.5 C -10.851562 9.90625 -11.203125 9.492188 -11.484375 9.265625 C -11.765625 9.046875 -12.082031 8.988281 -12.4375 9.09375 L -12.59375 8.859375 L -9.5 6.6875 L -9.34375 6.921875 C -9.550781 7.210938 -9.597656 7.523438 -9.484375 7.859375 C -9.367188 8.203125 -9.101562 8.671875 -8.6875 9.265625 L -3.046875 17.28125 L -3.984375 7.5 L -3.59375 7.234375 L 5.359375 11.140625 L 0.515625 4.265625 C 0.046875 3.585938 -0.363281 3.085938 -0.71875 2.765625 C -1.082031 2.441406 -1.421875 2.253906 -1.734375 2.203125 C -2.054688 2.148438 -2.394531 2.175781 -2.75 2.28125 L -2.90625 2.046875 Z M -0.6875 0.484375 "/></g></g></g><g fill="#000000" fill-opacity="1"><g transform="translate(248.614632, 303.939926)"><g><path d="M 0.390625 -0.171875 L 0.5 0.078125 C 0.257812 0.304688 0.078125 0.617188 -0.046875 1.015625 C -0.171875 1.410156 -0.21875 1.972656 -0.1875 2.703125 L 0.28125 12.8125 C 0.300781 13.226562 0.46875 13.554688 0.78125 13.796875 L 1.234375 14.203125 L -0.1875 15.84375 L -9.71875 7.03125 C -10.257812 6.539062 -10.710938 6.210938 -11.078125 6.046875 C -11.441406 5.878906 -11.753906 5.789062 -12.015625 5.78125 L -12.125 5.53125 L -8.765625 4 L -8.65625 4.25 C -8.914062 4.488281 -8.941406 4.726562 -8.734375 4.96875 C -8.523438 5.21875 -8.15625 5.585938 -7.625 6.078125 L -5.3125 8.234375 L -0.390625 5.984375 L -0.515625 2.859375 C -0.554688 2.128906 -0.664062 1.628906 -0.84375 1.359375 C -1.03125 1.097656 -1.296875 0.992188 -1.640625 1.046875 L -1.75 0.796875 Z M -0.359375 6.328125 L -5.03125 8.46875 L -0.0625 13.078125 Z M -0.359375 6.328125 "/></g></g></g><g fill="#000000" fill-opacity="1"><g transform="translate(227.787966, 312.523522)"><g><path d="M -10.921875 2.734375 C -10.378906 2.585938 -9.914062 2.59375 -9.53125 2.75 C -9.15625 2.914062 -8.78125 3.210938 -8.40625 3.640625 C -8.039062 4.066406 -7.601562 4.625 -7.09375 5.3125 C -6.613281 5.957031 -6.207031 6.492188 -5.875 6.921875 C -5.550781 7.359375 -5.257812 7.695312 -5 7.9375 C -4.738281 8.175781 -4.457031 8.328125 -4.15625 8.390625 C -3.863281 8.460938 -3.503906 8.441406 -3.078125 8.328125 L -1.921875 8.03125 L -3.125 3.5 C -3.3125 2.789062 -3.5 2.28125 -3.6875 1.96875 C -3.875 1.664062 -4.140625 1.5 -4.484375 1.46875 L -4.5625 1.203125 L -0.921875 0.25 L -0.84375 0.515625 C -1.144531 0.710938 -1.300781 0.988281 -1.3125 1.34375 C -1.320312 1.707031 -1.234375 2.242188 -1.046875 2.953125 L 1.265625 11.671875 C 1.441406 12.378906 1.625 12.882812 1.8125 13.1875 C 2 13.5 2.269531 13.664062 2.625 13.6875 L 2.6875 13.953125 L -1.421875 15.03125 C -2.484375 15.3125 -3.375 15.453125 -4.09375 15.453125 C -4.8125 15.453125 -5.390625 15.351562 -5.828125 15.15625 C -6.273438 14.96875 -6.617188 14.703125 -6.859375 14.359375 C -7.109375 14.023438 -7.285156 13.660156 -7.390625 13.265625 C -7.628906 12.359375 -7.519531 11.507812 -7.0625 10.71875 C -6.601562 9.925781 -5.738281 9.273438 -4.46875 8.765625 C -5.03125 8.859375 -5.515625 8.875 -5.921875 8.8125 C -6.328125 8.75 -6.691406 8.601562 -7.015625 8.375 C -7.335938 8.15625 -7.664062 7.847656 -8 7.453125 C -8.332031 7.054688 -8.71875 6.5625 -9.15625 5.96875 C -9.738281 5.207031 -10.179688 4.628906 -10.484375 4.234375 C -10.796875 3.835938 -11.054688 3.585938 -11.265625 3.484375 C -11.472656 3.378906 -11.695312 3.359375 -11.9375 3.421875 C -12 3.429688 -12.050781 3.441406 -12.09375 3.453125 C -12.132812 3.460938 -12.175781 3.484375 -12.21875 3.515625 L -12.296875 3.25 C -12.085938 3.132812 -11.847656 3.03125 -11.578125 2.9375 C -11.304688 2.84375 -11.085938 2.773438 -10.921875 2.734375 Z M -1.84375 8.34375 L -3.09375 8.671875 C -3.84375 8.867188 -4.40625 9.148438 -4.78125 9.515625 C -5.164062 9.878906 -5.40625 10.300781 -5.5 10.78125 C -5.59375 11.257812 -5.570312 11.75 -5.4375 12.25 C -5.300781 12.78125 -5.046875 13.265625 -4.671875 13.703125 C -4.304688 14.148438 -3.828125 14.46875 -3.234375 14.65625 C -2.640625 14.84375 -1.929688 14.828125 -1.109375 14.609375 C -0.835938 14.535156 -0.554688 14.445312 -0.265625 14.34375 Z M -1.84375 8.34375 "/></g></g></g><g fill="#000000" fill-opacity="1"><g transform="translate(206.134167, 317.274074)"><g><path d="M -0.953125 0.109375 L -0.921875 0.390625 C -1.234375 0.546875 -1.421875 0.796875 -1.484375 1.140625 C -1.546875 1.492188 -1.535156 2.035156 -1.453125 2.765625 L -0.421875 11.734375 C -0.335938 12.460938 -0.222656 12.988281 -0.078125 13.3125 C 0.0664062 13.644531 0.304688 13.84375 0.640625 13.90625 L 0.671875 14.1875 L -3.0625 14.625 L -3.09375 14.34375 C -2.769531 14.195312 -2.578125 13.945312 -2.515625 13.59375 C -2.453125 13.25 -2.460938 12.710938 -2.546875 11.984375 L -3.578125 3.015625 C -3.660156 2.285156 -3.773438 1.753906 -3.921875 1.421875 C -4.066406 1.097656 -4.3125 0.898438 -4.65625 0.828125 L -4.6875 0.546875 Z M -0.953125 0.109375 "/></g></g></g><g fill="#000000" fill-opacity="1"><g transform="translate(190.858198, 318.606256)"><g><path d="M 0.421875 0.015625 L 0.40625 0.296875 C 0.09375 0.398438 -0.203125 0.597656 -0.484375 0.890625 C -0.773438 1.191406 -1.066406 1.679688 -1.359375 2.359375 L -5.40625 11.625 C -5.5625 12.007812 -5.554688 12.378906 -5.390625 12.734375 L -5.15625 13.3125 L -7.171875 14.140625 L -11.828125 2.03125 C -12.097656 1.351562 -12.359375 0.859375 -12.609375 0.546875 C -12.867188 0.234375 -13.113281 0.015625 -13.34375 -0.109375 L -13.328125 -0.390625 L -9.640625 -0.28125 L -9.65625 0 C -9.988281 0.101562 -10.113281 0.304688 -10.03125 0.609375 C -9.957031 0.921875 -9.785156 1.414062 -9.515625 2.09375 L -8.390625 5.03125 L -2.984375 5.203125 L -1.734375 2.34375 C -1.441406 1.675781 -1.316406 1.175781 -1.359375 0.84375 C -1.410156 0.519531 -1.601562 0.3125 -1.9375 0.21875 L -1.921875 -0.0625 Z M -3.125 5.515625 L -8.265625 5.375 L -5.828125 11.703125 Z M -3.125 5.515625 "/></g></g></g><g fill="#000000" fill-opacity="1"><g transform="translate(168.386355, 317.122723)"><g><path d="M -0.9375 -0.1875 L -1 0.09375 C -1.34375 0.132812 -1.597656 0.3125 -1.765625 0.625 C -1.941406 0.945312 -2.101562 1.46875 -2.25 2.1875 L -4.046875 11.03125 C -4.191406 11.75 -4.242188 12.285156 -4.203125 12.640625 C -4.171875 12.992188 -4.003906 13.253906 -3.703125 13.421875 L -3.75 13.703125 L -8.640625 12.703125 C -10.265625 12.378906 -11.363281 11.914062 -11.9375 11.3125 C -12.519531 10.707031 -12.726562 10 -12.5625 9.1875 C -12.425781 8.519531 -12.054688 7.957031 -11.453125 7.5 C -10.859375 7.039062 -9.90625 6.820312 -8.59375 6.84375 C -10.226562 6.457031 -11.390625 5.84375 -12.078125 5 C -12.773438 4.164062 -13.03125 3.253906 -12.84375 2.265625 C -12.726562 1.671875 -12.492188 1.117188 -12.140625 0.609375 C -11.796875 0.109375 -11.316406 -0.304688 -10.703125 -0.640625 C -10.085938 -0.984375 -9.328125 -1.203125 -8.421875 -1.296875 C -7.515625 -1.390625 -6.453125 -1.3125 -5.234375 -1.0625 Z M -4.234375 1.25 C -4.097656 0.550781 -4.070312 0.0820312 -4.15625 -0.15625 C -4.238281 -0.40625 -4.5 -0.570312 -4.9375 -0.65625 L -5.484375 -0.765625 C -6.910156 -1.054688 -8.019531 -0.929688 -8.8125 -0.390625 C -9.613281 0.148438 -10.117188 0.945312 -10.328125 2 C -10.566406 3.1875 -10.414062 4.226562 -9.875 5.125 C -9.34375 6.03125 -8.335938 6.632812 -6.859375 6.9375 L -5.453125 7.21875 Z M -5.515625 7.53125 L -7.28125 7.171875 C -8.007812 7.023438 -8.628906 7.15625 -9.140625 7.5625 C -9.648438 7.96875 -9.972656 8.515625 -10.109375 9.203125 C -10.285156 10.078125 -10.128906 10.8125 -9.640625 11.40625 C -9.160156 12.007812 -8.410156 12.414062 -7.390625 12.625 L -6.578125 12.78125 Z M -5.515625 7.53125 "/></g></g></g><g fill="#000000" fill-opacity="1"><g transform="translate(146.681353, 311.854239)"><g><path d="M -0.890625 -0.34375 L -0.984375 -0.078125 C -1.335938 -0.0859375 -1.625 0.046875 -1.84375 0.328125 C -2.070312 0.617188 -2.316406 1.101562 -2.578125 1.78125 L -5.78125 10.21875 C -6.039062 10.90625 -6.179688 11.425781 -6.203125 11.78125 C -6.234375 12.132812 -6.109375 12.421875 -5.828125 12.640625 L -5.9375 12.90625 L -9.453125 11.578125 L -9.34375 11.3125 C -9 11.320312 -8.71875 11.1875 -8.5 10.90625 C -8.28125 10.625 -8.039062 10.140625 -7.78125 9.453125 L -4.140625 -0.109375 C -3.898438 -0.742188 -4.09375 -1.179688 -4.71875 -1.421875 L -6.265625 -2.015625 C -7.234375 -2.378906 -8.046875 -2.515625 -8.703125 -2.421875 C -9.367188 -2.335938 -10.039062 -1.96875 -10.71875 -1.3125 L -10.953125 -1.453125 L -9.90625 -3.765625 Z M -0.890625 -0.34375 "/></g></g></g><g fill="#000000" fill-opacity="1"><g transform="translate(127.631229, 303.818402)"><g><path d="M -0.828125 -0.484375 L -0.96875 -0.234375 C -1.3125 -0.304688 -1.613281 -0.222656 -1.875 0.015625 C -2.144531 0.265625 -2.460938 0.707031 -2.828125 1.34375 L -7.34375 9.15625 C -7.707031 9.789062 -7.925781 10.28125 -8 10.625 C -8.082031 10.976562 -8.007812 11.28125 -7.78125 11.53125 L -7.921875 11.78125 L -16.328125 6.921875 L -15.09375 4.34375 L -14.828125 4.421875 C -14.992188 5.472656 -14.867188 6.328125 -14.453125 6.984375 C -14.046875 7.648438 -13.351562 8.269531 -12.375 8.84375 L -10.3125 10.03125 L -7.28125 4.78125 L -8.984375 3.796875 C -9.691406 3.390625 -10.273438 3.109375 -10.734375 2.953125 C -11.191406 2.804688 -11.578125 2.773438 -11.890625 2.859375 C -12.203125 2.941406 -12.492188 3.113281 -12.765625 3.375 L -13.015625 3.234375 L -11.296875 0.28125 L -11.046875 0.421875 C -11.128906 0.785156 -11.128906 1.125 -11.046875 1.4375 C -10.960938 1.75 -10.742188 2.070312 -10.390625 2.40625 C -10.046875 2.738281 -9.519531 3.109375 -8.8125 3.515625 L -7.109375 4.5 L -4.046875 -0.796875 C -3.710938 -1.378906 -3.84375 -1.84375 -4.4375 -2.1875 L -6.109375 -3.15625 C -7.003906 -3.675781 -7.847656 -3.945312 -8.640625 -3.96875 C -9.429688 -4 -10.25 -3.660156 -11.09375 -2.953125 L -11.296875 -3.125 L -9.703125 -5.609375 Z M -0.828125 -0.484375 "/></g></g></g><g fill="#000000" fill-opacity="1"><g transform="translate(109.291108, 292.12876)"><g/></g></g><g fill="#000000" fill-opacity="1"><g transform="translate(130.896512, 226.44086)"><g><path d="M 5.875 0 L 5.875 -1.953125 C 8.207031 -2.703125 9.722656 -4.265625 10.421875 -6.640625 C 11.117188 -9.015625 11.46875 -12.71875 11.46875 -17.75 L 11.46875 -71.71875 C 11.46875 -77.40625 11.117188 -81.878906 10.421875 -85.140625 C 9.722656 -88.410156 8.671875 -90.835938 7.265625 -92.421875 C 5.867188 -94.003906 4.097656 -95.164062 1.953125 -95.90625 L 1.953125 -97.875 L 22.921875 -97.875 L 57.46875 -40.546875 L 90.3125 -97.875 L 110.171875 -97.875 L 110.171875 -95.90625 C 108.023438 -95.164062 106.253906 -94.003906 104.859375 -92.421875 C 103.460938 -90.835938 102.414062 -88.410156 101.71875 -85.140625 C 101.019531 -81.878906 100.671875 -77.40625 100.671875 -71.71875 L 100.671875 -17.75 C 100.671875 -12.71875 101.019531 -9.015625 101.71875 -6.640625 C 102.414062 -4.265625 103.925781 -2.703125 106.25 -1.953125 L 106.25 0 L 80.25 0 L 80.25 -1.953125 C 82.582031 -2.703125 84.097656 -4.265625 84.796875 -6.640625 C 85.492188 -9.015625 85.84375 -12.71875 85.84375 -17.75 L 85.84375 -85.421875 L 52.296875 -26.5625 L 49.078125 -26.5625 L 13.984375 -84.171875 L 13.984375 -26.140625 C 13.984375 -20.453125 14.351562 -15.976562 15.09375 -12.71875 C 15.84375 -9.457031 17.007812 -7.035156 18.59375 -5.453125 C 20.175781 -3.867188 22.179688 -2.703125 24.609375 -1.953125 L 24.609375 0 Z M 5.875 0 "/></g></g></g></svg>