<svg xmlns="http://www.w3.org/2000/svg" xmlns:xlink="http://www.w3.org/1999/xlink" width="1920" zoomAndPan="magnify" viewBox="0 0 1440 809.999993" height="1080" preserveAspectRatio="xMidYMid meet" version="1.0"><defs><clipPath id="31c2438f72"><path d="M 637 52 L 806 52 L 806 282 L 637 282 Z M 637 52 " clip-rule="nonzero"/></clipPath><clipPath id="b6f6e2f203"><path d="M 640.871094 46.21875 L 807.082031 52.679688 L 798.0625 284.816406 L 631.851562 278.359375 Z M 640.871094 46.21875 " clip-rule="nonzero"/></clipPath><clipPath id="f3e445d23a"><path d="M 640.871094 46.21875 L 807.082031 52.679688 L 798.0625 284.816406 L 631.851562 278.359375 Z M 640.871094 46.21875 " clip-rule="nonzero"/></clipPath></defs><g clip-path="url(#31c2438f72)"><g clip-path="url(#b6f6e2f203)"><g clip-path="url(#f3e445d23a)"><path fill="#524b46" d="M 690.425781 107.140625 C 681.550781 104.980469 677.03125 98.570312 673.0625 91.261719 C 670.472656 86.488281 669.097656 81.683594 669.339844 76.3125 C 669.5625 71.429688 673.257812 66.738281 677.980469 65.53125 C 681.625 64.597656 686.246094 66.78125 688.539062 70.671875 C 689.597656 72.457031 690.410156 74.390625 691.6875 76.984375 C 692.855469 75.125 693.742188 73.824219 694.511719 72.449219 C 697.984375 66.265625 707.980469 65.605469 712.019531 71.316406 C 713.699219 73.691406 714.222656 76.246094 712.914062 78.933594 C 711.933594 80.941406 710.933594 82.980469 709.644531 84.796875 C 706.023438 89.902344 702.25 94.902344 698.542969 99.945312 C 697.480469 101.386719 696.394531 102.816406 695.398438 104.308594 C 693.433594 107.25 692.695312 110.382812 693.066406 114.019531 C 693.679688 120.226562 693.671875 126.492188 694.175781 132.714844 C 695.089844 143.996094 699.199219 154.496094 702.730469 165.097656 C 705.847656 174.433594 709.421875 183.621094 712.902344 193.179688 C 713.273438 192.542969 713.722656 192.019531 713.898438 191.417969 C 715.589844 185.691406 717.167969 179.9375 718.871094 174.21875 C 720.070312 170.207031 721.226562 166.167969 722.71875 162.265625 C 725.65625 154.597656 728.535156 146.882812 731.949219 139.421875 C 736.726562 128.984375 741.921875 118.734375 747.0625 108.46875 C 748.183594 106.234375 748.84375 104.082031 748.441406 101.601562 C 746.5625 89.992188 749.332031 79.628906 755.636719 69.664062 C 758.847656 64.601562 762.707031 60.507812 767.167969 56.808594 C 770.453125 54.085938 774.296875 52.410156 778.617188 52.097656 C 781.949219 51.859375 783.589844 53.214844 784.121094 56.515625 C 784.921875 61.511719 783.214844 66.601562 778.390625 72.707031 C 781.398438 71.636719 783.769531 70.714844 786.183594 69.945312 C 790.6875 68.5 795.277344 68.214844 799.902344 69.296875 C 804.230469 70.308594 806.332031 73.730469 805.375 78.007812 C 805.042969 79.554688 804.464844 81.003906 803.644531 82.355469 C 802.824219 83.703125 801.804688 84.882812 800.585938 85.890625 C 799.1875 87.023438 797.726562 88.058594 796.195312 89 C 786.917969 94.910156 777.058594 99.046875 765.898438 99.949219 C 762.425781 100.226562 758.960938 101.734375 755.71875 103.1875 C 754.097656 103.917969 752.644531 105.582031 751.699219 107.171875 C 748.964844 111.796875 746.605469 116.640625 743.957031 121.320312 C 737.042969 133.519531 731.871094 146.523438 726.878906 159.566406 C 724.007812 167.078125 721.222656 174.640625 718.859375 182.324219 C 717.074219 188.132812 715.78125 194.125 714.699219 200.117188 C 713.367188 207.457031 712.457031 214.875 711.433594 222.273438 C 711.261719 223.488281 711.445312 224.773438 711.476562 226.902344 C 716.8125 218.902344 721.839844 211.914062 727.902344 205.75 C 738.367188 195.097656 749.082031 184.679688 759.273438 173.773438 C 763.613281 169.132812 766.917969 163.519531 770.695312 158.355469 C 770.941406 157.992188 771.234375 157.671875 771.574219 157.394531 C 771.785156 157.238281 772.132812 157.261719 772.660156 157.160156 C 774.0625 158.855469 773.976562 161.003906 773.644531 162.933594 C 771.148438 177.429688 766.417969 191.121094 756.789062 202.472656 C 748.914062 211.765625 739.433594 219.273438 728.335938 224.597656 C 724.847656 226.273438 721.28125 227.9375 718.097656 230.105469 C 715.730469 231.726562 713.757812 234.011719 711.929688 236.261719 C 711.320312 237.007812 711.59375 238.578125 711.664062 239.753906 C 712.09375 246.128906 712.726562 252.507812 713.023438 258.878906 C 713.300781 264.976562 713.300781 271.09375 713.304688 277.203125 C 713.304688 278.273438 712.734375 279.339844 712.179688 281.316406 C 711.320312 279.839844 710.667969 279.214844 710.609375 278.539062 C 710.328125 275.265625 710.234375 271.980469 710.015625 268.699219 C 709.476562 260.210938 708.621094 251.734375 708.433594 243.238281 C 708.242188 234.449219 708.199219 225.601562 709.015625 216.851562 C 709.6875 209.695312 709.078125 203.175781 703.371094 198.523438 C 700.25 195.96875 696.117188 194.507812 692.257812 193.035156 C 687.957031 191.398438 683.460938 190.246094 679.023438 188.976562 C 674.042969 187.550781 668.925781 186.519531 664.0625 184.777344 C 656.65625 182.117188 650.398438 177.738281 645.1875 171.664062 C 641.242188 167.09375 638.6875 161.9375 637.804688 156.183594 C 637.023438 151.113281 637.394531 145.867188 637.234375 139.855469 C 638.96875 140.621094 640.214844 140.808594 640.90625 141.53125 C 646.480469 147.34375 652.914062 151.605469 660.4375 154.648438 C 666.355469 157.042969 671.789062 160.613281 677.5 163.542969 C 681.886719 165.792969 686.382812 167.835938 690.8125 170 C 696.71875 172.890625 701.421875 177.136719 705.015625 182.632812 C 705.21875 182.945312 705.691406 183.078125 706.722656 183.71875 C 705.675781 180.339844 704.84375 177.59375 703.976562 174.859375 C 700.324219 163.316406 696.289062 151.878906 693.15625 140.203125 C 691.628906 134.519531 691.65625 128.390625 691.1875 122.445312 C 690.785156 117.390625 690.671875 112.320312 690.425781 107.140625 Z M 640.753906 145.140625 C 640.722656 147.394531 640.609375 148.859375 640.695312 150.3125 C 641.246094 159.9375 644.550781 168.226562 652.164062 174.585938 C 659.539062 180.742188 668.472656 183.167969 677.457031 185.351562 C 687.953125 187.898438 698.5 190.144531 708.296875 197.226562 C 707.457031 194.3125 707.0625 192.132812 706.21875 190.152344 C 701.890625 179.996094 693.925781 173.628906 684.207031 168.980469 C 676.554688 165.316406 669.058594 161.324219 661.492188 157.484375 C 659.894531 156.675781 658.273438 155.925781 656.695312 155.074219 C 653.695312 153.457031 650.660156 151.890625 647.753906 150.113281 C 645.53125 148.75 643.480469 147.09375 640.753906 145.140625 Z M 766.019531 82.613281 C 766.753906 81.511719 767.164062 80.71875 767.734375 80.066406 C 770.371094 77.035156 773.035156 74.027344 775.726562 71.046875 C 778.832031 67.605469 780.539062 63.535156 781.140625 59 C 781.464844 56.53125 780.316406 54.980469 777.953125 55.421875 C 775.101562 55.953125 771.816406 56.652344 769.746094 58.445312 C 760.035156 66.871094 752.871094 76.972656 751.800781 90.316406 C 751.535156 93.621094 750.71875 97.058594 752.339844 100.285156 C 757.148438 99.039062 761.683594 97.300781 766.359375 96.769531 C 770.890625 96.273438 775.316406 95.292969 779.632812 93.820312 C 783.949219 92.347656 788.054688 90.421875 791.945312 88.046875 C 795.769531 85.71875 799.652344 83.375 801.769531 79.160156 C 803.390625 75.929688 802.234375 73.078125 798.789062 72.195312 C 793.746094 70.910156 788.660156 71.09375 784.035156 73.554688 C 780.398438 75.496094 777.117188 78.097656 773.628906 80.332031 C 771.5 81.710938 769.726562 84.222656 766.019531 82.613281 Z M 691.898438 103.738281 C 697.917969 95.847656 704.113281 88.039062 709.9375 79.964844 C 713.078125 75.609375 710.234375 70.390625 704.847656 70.019531 C 702.164062 69.839844 699.554688 70.699219 698.082031 72.835938 C 695.996094 75.851562 693.394531 78.691406 692.8125 82.550781 C 692.464844 84.882812 691.246094 85.867188 688.664062 85.246094 C 688.71875 83.429688 688.804688 81.664062 688.824219 79.902344 C 688.894531 75.75 687.035156 72.445312 684.171875 69.636719 C 682.289062 67.796875 680.070312 67.421875 677.613281 68.480469 C 674.0625 70.011719 672.558594 72.734375 672.328125 76.554688 C 671.871094 83.816406 675.570312 89.371094 679.324219 94.980469 C 682.167969 99.234375 685.875 102.238281 691.898438 103.738281 Z M 769.808594 165.960938 C 768.359375 167.214844 767.679688 167.710938 767.105469 168.304688 C 762.203125 173.457031 757.339844 178.648438 752.421875 183.789062 C 748.71875 187.652344 744.917969 191.417969 741.230469 195.296875 C 735.308594 201.527344 729.277344 207.664062 723.628906 214.132812 C 720.625 217.574219 718.304688 221.609375 715.757812 225.433594 C 715.359375 226.03125 715.40625 226.917969 715.296875 227.421875 C 719.710938 225.246094 723.945312 223.035156 728.28125 221.035156 C 736.121094 217.429688 742.871094 212.222656 749.082031 206.382812 C 758.578125 197.457031 764.105469 186.0625 768.035156 173.835938 C 768.75 171.625 769.078125 169.292969 769.808594 165.960938 Z M 769.808594 165.960938 " fill-opacity="1" fill-rule="nonzero"/></g></g></g><path stroke-linecap="butt" transform="matrix(0.00357182, 0.464613, -0.464613, 0.00357182, 712.886106, 266.021169)" fill="none" stroke-linejoin="miter" d="M -0.00136683 3.000162 L 1070.252899 2.997007 " stroke="#524b46" stroke-width="6" stroke-opacity="1" stroke-miterlimit="4"/></svg>